<?xml version="1.0" encoding="UTF-8" standalone="no"?>
<svg width="457px" height="189px" viewBox="0 0 457 189" version="1.1" xmlns="http://www.w3.org/2000/svg" xmlns:xlink="http://www.w3.org/1999/xlink" xmlns:sketch="http://www.bohemiancoding.com/sketch/ns">
    <!-- Generator: Sketch 3.0.4 (8053) - http://www.bohemiancoding.com/sketch -->
    <title>logo</title>
    <desc>Created with Sketch.</desc>
    <defs></defs>
    <g id="Page-1" stroke="none" stroke-width="1" fill="none" fill-rule="evenodd" sketch:type="MSPage">
        <path d="M396.552305,121.555532 C391.43497,132.45836 385.414643,140.78 376.74,140.78 C371.28,140.78 366.132,136.412 366.132,126.896 C366.132,110.048 376.272,92.732 376.272,81.5 C376.272,79.784 375.492,78.38 373.776,78.38 C369.876,78.38 363.012,85.712 357.864,107.708 L351.624,140 L338.052,140 C338.052,140 338.466916,135.804738 339.547367,130.095839 C335.794239,136.517028 331.312739,140.78 325.104,140.78 C316.68,140.78 313.872,132.98 313.872,122.216 C313.872,120.400812 313.947427,118.503341 314.085522,116.547845 L314.085522,116.547845 C310.73853,120.39346 306.435554,122.684 300.768,122.684 C298.896,122.684 297.336,122.372 295.932,121.748 C290.004,132.668 282.672,140.78 274.872,140.78 C266.604,140.78 263.172,133.448 262.548,122.216 C258.336,133.136 253.032,140.78 247.26,140.78 C239.148,140.78 236.34,132.98 236.34,121.124 C236.34,120.370339 236.351432,119.600849 236.373619,118.816604 C229.781549,131.67214 220.851579,141.56 206.544,141.56 C199.992,141.56 193.908,138.908 190.788,132.668 L181.74,186.644 L171.288,186.644 L171.288,185.084 C171.288,173.072 174.564,157.472 177.684,146.552 C178.931037,138.989326 180.261059,130.866502 181.564396,122.793399 L181.564396,122.793399 C175.421529,135.167658 170.0365,140.78 164.892,140.78 C159.9,140.78 157.092,136.256 157.092,125.492 L157.092,123.776 C153.504,133.292 148.044,141.56 138.996,141.56 C131.352,141.56 128.232,133.136 128.232,121.748 C128.232,99.752 140.244,67.304 155.064,67.304 C160.836,67.304 164.112,70.736 165.204,77.756 L166.92,69.02 L177.996,69.02 C173.316,89.768 170.352,106.616 168.168,122.06 C167.856,123.776 167.856,125.024 167.856,126.116 C167.856,128.456 168.324,129.548 169.104,129.548 C170.807024,129.548 177.273186,122.172818 184.690293,103.152796 C187.1148,87.6443051 189.045587,74.4673512 189.54,68.864 L201.24,68.864 L199.992,77.288 C204.048,71.048 208.728,67.304 213.72,67.304 C222.456,67.304 226.2,76.508 226.2,88.52 C226.2,103.652 220.272,123.308 211.38,134.696 C224.729386,131.627176 232.041796,118.446416 237.770696,103.466858 L237.770693,103.466864 C239.270897,92.512752 241.720569,80.3779742 243.984,68.864 L257.244,68.864 C252.72,92.576 248.508,114.104 248.508,123.932 C248.508,127.364 248.976,129.392 250.38,129.392 C253.656,129.392 259.428,120.344 263.484,101.624 C264.732,91.328 266.916,79.784 269.1,68.864 L282.204,68.864 C278.148,90.236 274.56,109.892 274.56,120.812 C274.56,126.272 275.496,129.548 277.836,129.548 C280.8,129.548 285.012,123.308 289.068,114.26 C286.572,108.956 285.324,101.936 285.324,94.448 C285.324,77.132 291.564,58.256 300.612,58.256 C306.852,58.256 309.66,63.248 309.66,71.984 C309.66,83.996 305.136,102.56 298.116,117.224 C299.208,117.692 300.3,118.004 301.704,118.004 C308.435099,118.004 312.441139,112.123608 315.647424,103.800868 C317.867072,90.2912277 321.592683,76.467695 323.388,68.864 L336.648,68.864 C331.188,93.2 326.664,111.296 326.664,124.088 C326.664,128.612 328.38,129.392 329.784,129.392 C333.828488,129.392 338.958787,120.705518 345.793598,102.868527 L345.793598,102.868527 C348.062675,89.7948984 350.003897,78.136653 351.468,68.864 L364.884,68.864 L363.168,79.316 C368.16,71.828 374.4,67.148 380.952,67.148 C386.412,67.148 390,70.736 390,78.224 C390,92.732 379.86,111.296 379.86,124.088 C379.86,128.612 381.576,129.392 382.98,129.392 C386.984599,129.392 392.053695,120.876018 398.787865,103.393622 C402.929849,85.1824185 412.383339,67.304 423.384,67.304 C428.22,67.304 430.872,70.112 431.964,75.572 L433.368,68.864 L446.16,68.864 C444.288,75.728 439.14,104.744 434.616,129.548 C441.168,122.06 447.252,113.324 451.308,102.716 C452.712,102.716 455.676,103.808 455.676,104.744 C455.676,104.9 455.676,104.9 455.676,104.9 C449.748,120.188 441.168,131.264 432.744,140 L429.312,160.124 C426.66,175.88 420.732,187.424 410.748,187.424 C403.728,187.424 398.736,183.368 398.736,175.1 C398.736,164.336 408.72,155.444 420.264,144.368 C421.2,139.688 421.824,134.696 422.76,129.86 C418.86,136.88 413.712,141.56 407.316,141.56 C399.672,141.56 396.552,133.136 396.552,121.748 C396.552,121.683932 396.552102,121.619776 396.552305,121.555532 L396.552305,121.555532 Z M58.5,112.856 C26.052,112.856 12.48,95.228 12.48,78.536 C12.48,63.404 23.556,48.896 41.808,48.896 C46.488,48.896 50.388,49.988 53.976,52.172 L60.06,39.692 C54.288,36.416 49.296,35.012 41.964,35.012 C16.224,35.012 0,55.916 0,76.976 C0,98.66 17.16,120.656 58.5,120.656 C64.74,120.656 70.668,120.032 76.128,118.94 C73.788,129.86 71.136,138.596 68.016,145.616 C60.216,142.964 51.324,141.248 41.028,141.248 C24.492,141.248 16.38,150.764 16.38,159.968 C16.38,168.704 23.556,176.972 37.596,176.972 C50.388,176.972 63.492,172.448 74.412,157.94 C90.636,166.052 105.612,176.972 124.02,176.972 C139.464,176.972 150.228,167.456 154.284,153.104 L141.648,149.828 C140.088,156.692 134.16,165.272 123.708,165.272 C107.484,165.272 94.848,156.848 79.56,149.984 C84.552,140.936 88.92,129.236 92.196,113.948 C127.764,98.816 145.392,60.908 145.392,33.14 C145.392,14.888 137.748,1.16 122.616,1.16 C103.428,1.16 89.232,14.42 81.588,84.464 C80.496,93.98 79.404,102.56 78,110.204 C72.072,111.92 65.52,112.856 58.5,112.856 Z M122.46,8.96 C128.7,8.96 132.132,17.384 132.132,29.24 C132.132,51.236 120.588,85.4 94.38,102.404 C95.316,96.788 96.252,90.86 96.876,84.464 C104.052,17.384 113.88,8.96 122.46,8.96 Z M39.624,169.484 C31.668,169.484 27.768,164.96 27.768,160.28 C27.768,154.82 32.76,148.892 42.432,148.892 C50.232,148.892 57.408,150.608 64.116,153.26 C57.096,164.96 48.828,169.484 39.624,169.484 Z M155.844,78.536 C159.276,78.536 160.68,82.592 160.68,88.364 C160.68,102.872 151.788,128.3 144.612,128.3 C142.272,128.3 141.336,125.024 141.336,120.188 C141.336,105.992 149.292,78.536 155.844,78.536 Z M195.78,102.404 C199.68,86.96 204.516,78.536 209.196,78.536 C211.692,78.536 212.628,82.592 212.628,88.364 C212.628,102.716 206.076,128.3 198.9,128.3 C194.688,128.3 193.44,123.62 193.44,118.628 C193.44,117.536 193.44,116.6 193.596,115.664 L195.78,102.404 Z M172.536,178.532 C172.536,177.908 172.692,177.44 172.848,176.66 C172.692,177.44 172.536,178.064 172.536,178.532 Z M171.912,182.744 C171.912,182.432 172.068,181.496 172.224,180.56 C172.068,181.652 171.912,182.432 171.912,182.744 Z M298.116,65.12 C299.52,65.12 300.456,66.056 300.456,68.24 C300.456,79.16 296.556,94.604 291.876,107.24 C291.096,103.808 290.784,99.752 290.784,95.696 C290.784,81.188 294.84,65.12 298.116,65.12 Z M332.592,59.816 C339.456,59.816 343.512,53.264 343.512,47.648 C343.512,43.28 341.328,39.536 336.18,39.536 C329.316,39.536 325.26,46.244 325.26,51.86 C325.26,56.072 327.6,59.816 332.592,59.816 Z M424.164,78.536 C427.596,78.536 429,82.592 429,88.364 C429,102.872 420.108,128.3 412.932,128.3 C410.592,128.3 409.656,125.024 409.656,120.188 C409.656,105.992 417.612,78.536 424.164,78.536 Z M407.472,174.944 C407.472,167.456 411.996,161.372 418.548,154.508 L415.428,171.2 C414.492,176.036 413.244,179.156 410.592,179.156 C409.032,179.156 407.472,177.908 407.472,174.944 Z" id="Lapwing" fill="#000000" sketch:type="MSShapeGroup"></path>
        <path d="M321.56,188 L321.56,183 L313.4,183 L313.4,160 L308.2,160 L308.2,188 L321.56,188 Z M341.96,188 L335.32,160 L329.4,160 L322.76,188 L328.2,188 L329.08,183.6 L335.56,183.6 L336.48,188 L341.96,188 Z M334.64,179 L330.04,179 L331.92,169.84 C332.08,169.08 332.32,167.44 332.32,167.44 L332.4,167.44 C332.4,167.44 332.64,169.08 332.8,169.84 L334.64,179 Z M353.48,188 C360.32,188 363.12,184.16 363.12,179.4 C363.12,176.84 361.68,174.6 359.4,173.52 L359.4,173.4 C361.36,172.2 362.2,170.12 362.2,167.72 C362.2,162.52 359.2,160 353.32,160 L345.56,160 L345.56,188 L353.48,188 Z M350.76,183.04 L350.76,176.04 L353.84,176.04 C357.16,176.04 358.16,177.48 358.16,179.4 C358.16,181.36 357.2,183.04 353.88,183.04 L350.76,183.04 Z M350.76,171.48 L350.76,164.96 L352.68,164.96 C356,164.96 357,165.96 357,167.88 C357,169.84 356.04,171.48 352.72,171.48 L350.76,171.48 Z M366.04,182.88 C367.44,186.16 370.6,188.4 374.92,188.4 C380.12,188.4 383.8,185.24 383.8,180.28 C383.8,171.04 372.24,172.04 372.24,167.08 C372.24,165.52 373.28,164.6 374.76,164.6 C376.88,164.6 378.08,166.12 378.76,168.44 L383.28,165.64 C381.92,162.12 379.32,159.6 374.76,159.6 C370.2,159.6 367.04,162.92 367.04,167.24 C367.04,175.76 378.6,175.72 378.6,180.28 C378.6,182.44 377,183.4 374.92,183.4 C372.92,183.4 371.16,182 370.48,179.88 L366.04,182.88 Z" id="LABS" fill="#000000" sketch:type="MSShapeGroup"></path>
    </g>
</svg>