<?xml version="1.0" standalone="no"?>
<!DOCTYPE svg PUBLIC "-//W3C//DTD SVG 1.1//EN" "http://www.w3.org/Graphics/SVG/1.1/DTD/svg11.dtd" >
<svg xmlns="http://www.w3.org/2000/svg">
<metadata></metadata>
<defs>
<font id="blanchcondensed" horiz-adv-x="643" >
<font-face units-per-em="2048" ascent="1434" descent="-614" />
<missing-glyph horiz-adv-x="294" />
<glyph horiz-adv-x="0" />
<glyph horiz-adv-x="682" />
<glyph unicode=" "  horiz-adv-x="294" />
<glyph unicode="&#x09;" horiz-adv-x="294" />
<glyph unicode="&#xa0;" horiz-adv-x="294" />
<glyph unicode="!" horiz-adv-x="301" d="M59 43q0 13 9.5 23t23.5 10h66q13 0 22.5 -9.5t9.5 -23.5v-135q0 -12 -9.5 -22.5t-22.5 -10.5h-66q-13 0 -23 10.5t-10 22.5v135zM59 240v1091q0 13 9.5 23t23.5 10h66q13 0 22.5 -9.5t9.5 -23.5v-1091q0 -14 -9.5 -23.5t-22.5 -9.5h-66q-14 0 -23.5 9.5t-9.5 23.5z" />
<glyph unicode="#" horiz-adv-x="1085" d="M39 453v65q0 14 9.5 23.5t23.5 9.5h237v262h-237q-14 0 -23.5 9.5t-9.5 23.5v65q0 13 9.5 23t23.5 10h237v385q0 13 9.5 23t23.5 10h66q13 0 22.5 -9.5t9.5 -23.5v-385h131v385q0 13 9.5 23t23.5 10h66q13 0 22.5 -9.5t9.5 -23.5v-385h238q14 0 23.5 -10t9.5 -23v-65 q0 -14 -9.5 -23.5t-23.5 -9.5h-238v-262h238q14 0 23.5 -9.5t9.5 -23.5v-65q0 -13 -9.5 -23t-23.5 -10h-238v-387q0 -12 -9.5 -22.5t-22.5 -10.5h-66q-13 0 -23 10.5t-10 22.5v387h-131v-387q0 -12 -9.5 -22.5t-22.5 -10.5h-66q-13 0 -23 10.5t-10 22.5v387h-237 q-14 0 -23.5 10t-9.5 23zM440 551h131v262h-131v-262z" />
<glyph unicode="$" horiz-adv-x="641" d="M59 238v69q0 13 9.5 23t23.5 10h66q13 0 22.5 -9.5t9.5 -23.5v-69q0 -43 31 -74t74 -31t73.5 31t30.5 74v102q0 25 -4 35l-295 520q-31 53 -36 69t-5 62v104q0 79 48 141.5t122 84.5v102q0 14 9.5 23.5t23.5 9.5h66q13 0 22.5 -9.5t9.5 -23.5v-102q74 -22 122 -84.5 t48 -141.5v-69q0 -14 -9.5 -23.5t-22.5 -9.5h-66q-12 0 -22.5 10t-10.5 23v69q0 43 -30.5 74t-73.5 31t-74 -31t-31 -74v-104q0 -23 7 -35l295 -520q29 -52 33.5 -68t4.5 -63v-102q0 -79 -48 -141.5t-122 -84.5v-102q0 -14 -9.5 -23.5t-22.5 -9.5h-66q-14 0 -23.5 9.5 t-9.5 23.5v102q-74 22 -122 84.5t-48 141.5z" />
<glyph unicode="%" horiz-adv-x="1159" d="M59 987v139q0 97 70 166.5t168 69.5q97 0 166 -69.5t69 -166.5v-139q0 -97 -69 -166t-166 -69q-98 0 -168 69t-70 166zM190 987q0 -43 31.5 -73.5t75.5 -30.5q43 0 73.5 30.5t30.5 73.5v139q0 43 -30.5 74t-73.5 31q-44 0 -75.5 -31t-31.5 -74v-139zM317 33v301 q0 46 5 62.5t36 68.5l295 522q6 10 6 35v307q0 13 9.5 23t23.5 10h66q14 0 23.5 -10t9.5 -23v-307q0 -46 -5 -62t-34 -69l-297 -522q-6 -10 -6 -35v-301q0 -13 -9.5 -23t-23.5 -10h-66q-12 0 -22.5 10t-10.5 23zM578 238v139q0 97 69 166t166 69q98 0 167 -69t69 -166v-139 q0 -97 -69 -166.5t-167 -69.5q-97 0 -166 69.5t-69 166.5zM709 238q0 -43 30.5 -74t73.5 -31t74 31t31 74v139q0 43 -31 73.5t-74 30.5t-73.5 -30.5t-30.5 -73.5v-139z" />
<glyph unicode="&#x26;" horiz-adv-x="759" d="M59 238v407q0 104 74 172q-74 68 -74 170v139q0 98 69.5 167t166.5 69h70q13 0 22.5 -9.5t9.5 -23.5v-65q0 -12 -9.5 -22.5t-22.5 -10.5h-70q-43 0 -74 -31t-31 -74v-139q0 -43 31 -73.5t74 -30.5h106v104q0 13 9.5 23t23.5 10h66q12 0 22 -10t10 -23v-104h105 q13 0 23 -9.5t10 -23.5v-66q0 -13 -9.5 -22.5t-23.5 -9.5h-105v-719q0 -12 -10 -22.5t-22 -10.5h-205q-97 0 -166.5 70t-69.5 168zM190 238q0 -43 31 -74t74 -31h106v619h-106q-43 0 -74 -31.5t-31 -75.5v-407z" />
<glyph unicode="'" horiz-adv-x="301" d="M59 922v409q0 13 9.5 23t23.5 10h66q13 0 22.5 -9.5t9.5 -23.5v-409q0 -14 -9.5 -23.5t-22.5 -9.5h-66q-14 0 -23.5 9.5t-9.5 23.5z" />
<glyph unicode="(" horiz-adv-x="438" d="M59 236v890q0 98 69.5 167t166.5 69q13 0 23 -10t10 -23v-63q0 -14 -10 -23.5t-23 -9.5q-43 0 -74 -31.5t-31 -75.5v-890q0 -43 31 -74t74 -31q13 0 23 -9.5t10 -23.5v-65q0 -13 -10 -23t-23 -10q-97 0 -166.5 69.5t-69.5 166.5z" />
<glyph unicode=")" horiz-adv-x="436" d="M59 33v65q0 14 9.5 23.5t23.5 9.5q43 0 74 31t31 74v890q0 44 -31 75.5t-74 31.5q-14 0 -23.5 9.5t-9.5 23.5v63q0 13 9.5 23t23.5 10q97 0 166.5 -69t69.5 -167v-890q0 -97 -69.5 -166.5t-166.5 -69.5q-14 0 -23.5 10t-9.5 23z" />
<glyph unicode="+" horiz-adv-x="569" d="M59 649v66q0 13 9.5 23t23.5 10h103v102q0 14 9.5 23.5t22.5 9.5h66q13 0 23 -9.5t10 -23.5v-102h102q12 0 22.5 -10t10.5 -23v-66q0 -12 -10.5 -22.5t-22.5 -10.5h-102v-102q0 -12 -10 -21.5t-23 -9.5h-66q-13 0 -22.5 9.5t-9.5 21.5v102h-103q-13 0 -23 10.5t-10 22.5z " />
<glyph unicode="," horiz-adv-x="301" d="M59 168q0 14 9.5 23.5t23.5 9.5h66q13 0 22.5 -9.5t9.5 -23.5v-410q0 -14 -9 -23t-23 -9h-66q-14 0 -23.5 9.5t-9.5 22.5v410z" />
<glyph unicode="-" horiz-adv-x="571" d="M59 649v66q0 13 10.5 23t22.5 10h336q14 0 23.5 -10t9.5 -23v-66q0 -13 -9.5 -23t-23.5 -10h-336q-12 0 -22.5 10t-10.5 23z" />
<glyph unicode="." horiz-adv-x="301" d="M59 33v135q0 14 9.5 23.5t23.5 9.5h66q13 0 22.5 -9.5t9.5 -23.5v-135q0 -12 -9.5 -22.5t-22.5 -10.5h-66q-13 0 -23 10.5t-10 22.5z" />
<glyph unicode="/" d="M59 33v301q0 46 5 62t34 69l297 522q6 10 6 35v307q0 13 9.5 23t23.5 10h66q12 0 22 -10t10 -23v-307q0 -47 -5 -63t-35 -68l-295 -522q-7 -12 -7 -35v-301q0 -14 -9.5 -23.5t-22.5 -9.5h-66q-14 0 -23.5 10t-9.5 23z" />
<glyph unicode="0" horiz-adv-x="641" d="M59 236v888q0 98 69 168t167 70t166.5 -69.5t68.5 -168.5v-888q0 -98 -68.5 -167t-166.5 -69t-167 69t-69 167zM190 236q0 -43 31 -74t74 -31t73.5 31t30.5 74v493l-202 -360q-7 -12 -7 -35v-98zM190 627l205 360q4 10 4 33v104q0 44 -30.5 75.5t-73.5 31.5t-74 -31.5 t-31 -75.5v-497z" />
<glyph unicode="1" horiz-adv-x="440" d="M59 1264v65q0 12 10 22.5t23 10.5h172q26 0 46 -20t20 -46v-1263q0 -13 -10.5 -23t-22.5 -10h-66q-13 0 -22.5 9.5t-9.5 23.5v1198h-107q-14 0 -23.5 9.5t-9.5 23.5z" />
<glyph unicode="2" d="M59 33v301q0 46 5 62t34 69l297 522q6 10 6 33v104q0 44 -31 75.5t-75 31.5q-43 0 -74 -31.5t-31 -75.5v-69q0 -14 -9.5 -23.5t-22.5 -9.5h-66q-14 0 -23.5 10t-9.5 23v69q0 98 69.5 168t166.5 70q98 0 167.5 -70t69.5 -168v-104q0 -45 -5 -61.5t-35 -69.5l-295 -520 q-7 -12 -7 -35v-203h310q12 0 22 -10.5t10 -22.5v-65q0 -13 -10 -23t-22 -10h-408q-14 0 -23.5 10t-9.5 23z" />
<glyph unicode="3" d="M59 236v69q0 13 9.5 23t23.5 10h66q13 0 22.5 -9.5t9.5 -23.5v-69q0 -43 31 -74t74 -31q44 0 75 31t31 74v274q0 43 -31 73.5t-75 30.5q-13 0 -23 10t-10 23v66q0 13 9.5 22.5t23.5 9.5q44 0 75 31t31 74v274q0 43 -31 74t-75 31q-43 0 -74 -31t-31 -74v-69 q0 -14 -9.5 -23.5t-22.5 -9.5h-66q-14 0 -23.5 10t-9.5 23v69q0 98 69.5 168t166.5 70q98 0 167.5 -70t69.5 -168v-274q0 -100 -73 -170q73 -70 73 -170v-274q0 -98 -69.5 -167t-167.5 -69q-97 0 -166.5 69t-69.5 167z" />
<glyph unicode="4" horiz-adv-x="780" d="M59 516v125q0 46 5 62.5t34 68.5l297 522q6 10 6 35q0 12 10 22.5t23 10.5h66q12 0 22 -10.5t10 -22.5q0 -47 -5 -63t-35 -68l-295 -522q-7 -12 -7 -35v-27h211v105q0 13 9.5 23t23.5 10h66q12 0 22 -10t10 -23v-105h105q13 0 23 -10t10 -22v-66q0 -14 -10 -23.5 t-23 -9.5h-105v-450q0 -13 -10 -23t-22 -10h-66q-14 0 -23.5 10t-9.5 23v450h-309q-14 0 -23.5 9.5t-9.5 23.5z" />
<glyph unicode="5" d="M59 236v69q0 13 9.5 23t23.5 10h66q13 0 22.5 -9.5t9.5 -23.5v-69q0 -43 31.5 -74t75.5 -31q43 0 73.5 31t30.5 74v405q0 43 -30.5 73.5t-73.5 30.5h-205q-13 0 -23 10.5t-10 22.5v551q0 12 10 22.5t23 10.5h408q13 0 22.5 -10.5t9.5 -22.5v-65q0 -14 -9.5 -23.5 t-22.5 -9.5h-310v-354h107q97 0 166 -69t69 -167v-405q0 -98 -69 -167t-166 -69q-98 0 -168 69t-70 167z" />
<glyph unicode="6" d="M59 236v888q0 98 70 168t168 70q97 0 166 -70t69 -168v-69q0 -14 -9.5 -23.5t-22.5 -9.5h-66q-14 0 -23.5 10t-9.5 23v69q0 44 -30.5 75.5t-73.5 31.5q-44 0 -75.5 -31.5t-31.5 -75.5v-272q52 25 107 25q97 0 166 -69t69 -167v-405q0 -98 -69 -167t-166 -69 q-98 0 -168 69t-70 167zM190 236q0 -43 31.5 -74t75.5 -31q43 0 73.5 31t30.5 74v405q0 43 -30.5 73.5t-73.5 30.5q-44 0 -75.5 -30.5t-31.5 -73.5v-405z" />
<glyph unicode="7" horiz-adv-x="641" d="M59 33v301q0 46 5 62t34 69l297 522q4 10 4 33v211h-307q-14 0 -23.5 9.5t-9.5 23.5v65q0 12 10 22.5t23 10.5h406q13 0 22.5 -10.5t9.5 -22.5v-309q0 -45 -4.5 -61.5t-33.5 -69.5l-295 -520q-7 -12 -7 -35v-301q0 -14 -9.5 -23.5t-22.5 -9.5h-66q-14 0 -23.5 10t-9.5 23 z" />
<glyph unicode="8" horiz-adv-x="641" d="M59 236v407q0 101 74 172q-74 71 -74 172v137q0 98 69.5 168t166.5 70q98 0 166.5 -69.5t68.5 -168.5v-137q0 -102 -73 -172q73 -70 73 -172v-407q0 -98 -68.5 -167t-166.5 -69q-97 0 -166.5 69t-69.5 167zM190 236q0 -43 31 -74t74 -31t73.5 31t30.5 74v407 q0 43 -30.5 74t-73.5 31t-74 -31t-31 -74v-407zM190 987q0 -44 31 -75t74 -31t73.5 31t30.5 75v137q0 44 -30.5 75.5t-73.5 31.5t-74 -31.5t-31 -75.5v-137z" />
<glyph unicode="9" horiz-adv-x="641" d="M59 236v69q0 13 9.5 23t23.5 10h66q13 0 22.5 -9.5t9.5 -23.5v-69q0 -43 31 -74t74 -31t73.5 31t30.5 74v405q-48 -25 -104 -25q-97 0 -166.5 69t-69.5 167v272q0 98 69.5 168t166.5 70q98 0 166.5 -69.5t68.5 -168.5v-888q0 -98 -68.5 -167t-166.5 -69q-97 0 -166.5 69 t-69.5 167zM190 852q0 -43 31 -73.5t74 -30.5t73.5 30.5t30.5 73.5v272q0 44 -30.5 75.5t-73.5 31.5t-74 -31.5t-31 -75.5v-272z" />
<glyph unicode=":" horiz-adv-x="301" d="M59 33v135q0 14 9.5 23.5t23.5 9.5h66q12 0 22 -10t10 -23v-135q0 -13 -10 -23t-22 -10h-66q-14 0 -23.5 10t-9.5 23zM59 33v135q0 14 9.5 23.5t23.5 9.5h66q13 0 22.5 -9.5t9.5 -23.5v-135q0 -12 -9.5 -22.5t-22.5 -10.5h-66q-13 0 -23 10.5t-10 22.5zM59 610v135 q0 13 9.5 23t23.5 10h66q13 0 22.5 -9.5t9.5 -23.5v-135q0 -12 -9.5 -22t-22.5 -10h-66q-13 0 -23 10t-10 22z" />
<glyph unicode=";" horiz-adv-x="301" d="M59 168q0 14 9.5 23.5t23.5 9.5h66q13 0 22.5 -9.5t9.5 -23.5v-410q0 -14 -9 -23t-23 -9h-66q-14 0 -23.5 9.5t-9.5 22.5v410zM59 610v135q0 13 9.5 23t23.5 10h66q13 0 22.5 -9.5t9.5 -23.5v-135q0 -12 -9.5 -22t-22.5 -10h-66q-13 0 -23 10t-10 22z" />
<glyph unicode="=" horiz-adv-x="571" d="M59 520v66q0 13 9.5 22.5t23.5 9.5h334q14 0 23.5 -9.5t9.5 -22.5v-66q0 -14 -9.5 -23.5t-23.5 -9.5h-334q-14 0 -23.5 9.5t-9.5 23.5zM59 780v66q0 14 9.5 23.5t23.5 9.5h334q14 0 23.5 -9.5t9.5 -23.5v-66q0 -12 -10 -22t-23 -10h-334q-13 0 -23 10t-10 22z" />
<glyph unicode="?" horiz-adv-x="641" d="M59 43q0 13 9.5 23t23.5 10h66q12 0 22 -10t10 -23v-135q0 -13 -10 -23t-22 -10h-66q-14 0 -23.5 9.5t-9.5 23.5v135zM59 240v100q0 44 5 60.5t34 70.5l295 520q6 10 6 33v104q0 43 -30.5 74t-73.5 31t-74 -31t-31 -74v-69q0 -13 -10 -23t-22 -10h-66q-14 0 -23.5 10 t-9.5 23v69q0 97 69 166.5t167 69.5q97 0 166 -69.5t69 -166.5v-104q0 -44 -5 -60.5t-36 -70.5l-294 -520q-5 -13 -5 -33v-100q0 -13 -10 -23t-22 -10h-66q-14 0 -23.5 9.5t-9.5 23.5z" />
<glyph unicode="@" horiz-adv-x="1236" d="M59 236v890q0 98 69.5 167t166.5 69h596q98 0 166.5 -69t68.5 -167v-591q0 -97 -68.5 -166.5t-166.5 -69.5h-160q-13 0 -23 9.5t-10 23.5v284h-209v-284q0 -14 -9.5 -23.5t-22.5 -9.5h-66q-13 0 -23 9.5t-10 23.5v497q0 97 69.5 166.5t166.5 69.5t166 -69.5t69 -166.5 v-399h62q44 0 75 31t31 74v591q0 44 -31 75.5t-75 31.5h-596q-43 0 -74 -31.5t-31 -75.5v-890q0 -43 31 -74t74 -31h371q13 0 22.5 -9.5t9.5 -23.5v-65q0 -14 -9.5 -23.5t-22.5 -9.5h-371q-97 0 -166.5 69.5t-69.5 166.5zM489 748h209v81q0 43 -30.5 74t-73.5 31t-74 -31 t-31 -74v-81z" />
<glyph unicode="A" d="M59 33v1091q0 98 70 168t168 70q97 0 166 -70t69 -168v-1091q0 -14 -9.5 -23.5t-22.5 -9.5h-66q-14 0 -23.5 10t-9.5 23v583h-211v-583q0 -14 -9.5 -23.5t-22.5 -9.5h-66q-12 0 -22.5 10t-10.5 23zM125 33zM190 748h211v376q0 44 -30.5 75.5t-73.5 31.5 q-44 0 -75.5 -31.5t-31.5 -75.5v-376z" />
<glyph unicode="B" d="M59 66v1230q0 26 20 46t46 20h172q97 0 166 -70t69 -168v-272q0 -102 -73 -172q73 -70 73 -170v-274q0 -97 -69 -166.5t-166 -69.5h-172q-27 0 -46.5 19.5t-19.5 46.5zM190 131h107q43 0 73.5 31t30.5 74v274q0 43 -30.5 73.5t-73.5 30.5h-107v-483zM190 745h107 q43 0 73.5 31.5t30.5 75.5v272q0 44 -30.5 75.5t-73.5 31.5h-107v-486z" />
<glyph unicode="C" horiz-adv-x="620" d="M59 236v890q0 97 69 166.5t167 69.5q97 0 166 -69.5t69 -166.5v-69q0 -14 -9.5 -23.5t-22.5 -9.5h-66q-14 0 -23.5 10t-9.5 23v69q0 43 -30.5 74t-73.5 31t-74 -31t-31 -74v-890q0 -43 31 -74t74 -31t73.5 31t30.5 74v75q0 13 9.5 23t23.5 10h66q13 0 22.5 -9.5 t9.5 -23.5v-75q0 -97 -69 -166.5t-166 -69.5q-98 0 -167 69.5t-69 166.5z" />
<glyph unicode="D" d="M59 66v1230q0 26 20 46t46 20h172q98 0 166.5 -69.5t68.5 -168.5v-888q0 -97 -68.5 -166.5t-166.5 -69.5h-172q-27 0 -46.5 19.5t-19.5 46.5zM190 131h107q43 0 73.5 31t30.5 74v888q0 44 -30.5 75.5t-73.5 31.5h-107v-1100z" />
<glyph unicode="E" horiz-adv-x="512" d="M59 66v1230q0 27 19.5 46.5t46.5 19.5h244q13 0 22.5 -10.5t9.5 -22.5v-65q0 -14 -9.5 -23.5t-22.5 -9.5h-179v-486h179q13 0 22.5 -9.5t9.5 -22.5v-66q0 -12 -9.5 -22.5t-22.5 -10.5h-179v-483h179q13 0 22.5 -10.5t9.5 -22.5v-65q0 -14 -9.5 -23.5t-22.5 -9.5h-244 q-28 0 -47 19t-19 47z" />
<glyph unicode="F" horiz-adv-x="512" d="M59 33v1263q0 26 20 46t46 20h244q13 0 22.5 -10.5t9.5 -22.5v-65q0 -14 -9.5 -23.5t-22.5 -9.5h-179v-486h179q13 0 22.5 -9.5t9.5 -22.5v-66q0 -12 -9.5 -22.5t-22.5 -10.5h-179v-581q0 -14 -9.5 -23.5t-22.5 -9.5h-66q-14 0 -23.5 10t-9.5 23z" />
<glyph unicode="G" horiz-adv-x="641" d="M59 236v890q0 97 69.5 166.5t166.5 69.5t166 -69.5t69 -166.5v-69q0 -14 -9.5 -23.5t-22.5 -9.5h-66q-14 0 -23.5 10t-9.5 23v69q0 43 -30.5 74t-73.5 31t-74 -31t-31 -74v-890q0 -43 31 -74t74 -31t73.5 31t30.5 74v382h-71q-14 0 -23.5 10t-9.5 23v66q0 13 9.5 23 t23.5 10h170q13 0 22.5 -9.5t9.5 -23.5v-481q0 -97 -69 -166.5t-166 -69.5t-166.5 69.5t-69.5 166.5z" />
<glyph unicode="H" horiz-adv-x="641" d="M59 33v1294v2q0 12 10 22.5t23 10.5h66q13 0 22.5 -10.5t9.5 -22.5v-584h211v584q0 12 10 22.5t23 10.5h64q13 0 22.5 -10.5t9.5 -22.5v-1296q0 -14 -9.5 -23.5t-22.5 -9.5h-64q-14 0 -23.5 10t-9.5 23v581h-211v-581q0 -14 -9.5 -23.5t-22.5 -9.5h-66q-14 0 -23.5 10 t-9.5 23z" />
<glyph unicode="I" horiz-adv-x="301" d="M59 33v1294v2q0 12 10 22.5t23 10.5h66q13 0 22.5 -10.5t9.5 -22.5v-1296q0 -14 -9.5 -23.5t-22.5 -9.5h-66q-14 0 -23.5 10t-9.5 23z" />
<glyph unicode="J" horiz-adv-x="641" d="M59 236v75q0 13 9.5 23t23.5 10h66q13 0 22.5 -9.5t9.5 -23.5v-75q0 -43 31 -74t74 -31t73.5 31t30.5 74v1093q0 13 10.5 23t22.5 10h66q13 0 22.5 -9.5t9.5 -23.5v-1093q0 -97 -68.5 -166.5t-166.5 -69.5q-97 0 -166.5 69.5t-69.5 166.5z" />
<glyph unicode="K" d="M59 33v583v132v579v2q0 12 10 22.5t23 10.5h66q13 0 22.5 -10.5t9.5 -22.5v-581h105q44 0 75 30.5t31 73.5v477q0 12 10 22.5t23 10.5h66q12 0 22 -10.5t10 -22.5v-477q0 -100 -73 -170q73 -70 73 -172v-477q0 -13 -10 -23t-22 -10h-66q-14 0 -23.5 10t-9.5 23v477 q0 44 -31 75t-75 31h-105v-583q0 -14 -9.5 -23.5t-22.5 -9.5h-66q-14 0 -23.5 10t-9.5 23z" />
<glyph unicode="L" horiz-adv-x="489" d="M59 66v1263q0 12 10 22.5t23 10.5h66q12 0 22 -10.5t10 -22.5v-1198h177q13 0 22.5 -10.5t9.5 -22.5v-65q0 -14 -9.5 -23.5t-22.5 -9.5h-242q-28 0 -47 19t-19 47z" />
<glyph unicode="M" horiz-adv-x="985" d="M59 33v1091q0 98 70 168t168 70q99 0 170 -74q71 74 170 74q98 0 167.5 -70t69.5 -168v-1091q0 -13 -10 -23t-22 -10h-66q-14 0 -23.5 10t-9.5 23v1091q0 44 -31 75.5t-75 31.5q-43 0 -74 -31.5t-31 -75.5v-1091q0 -14 -9.5 -23.5t-22.5 -9.5h-66q-14 0 -23.5 10t-9.5 23 v1091q0 44 -30.5 75.5t-73.5 31.5q-44 0 -75.5 -31.5t-31.5 -75.5v-1091q0 -14 -9.5 -23.5t-22.5 -9.5h-66q-12 0 -22.5 10t-10.5 23z" />
<glyph unicode="N" d="M59 33v1091q0 98 70 168t168 70q97 0 166 -70t69 -168v-1091q0 -14 -9.5 -23.5t-22.5 -9.5h-66q-14 0 -23.5 10t-9.5 23v1091q0 44 -30.5 75.5t-73.5 31.5q-44 0 -75.5 -31.5t-31.5 -75.5v-1091q0 -14 -9.5 -23.5t-22.5 -9.5h-66q-14 0 -23.5 10t-9.5 23z" />
<glyph unicode="O" d="M59 236v888q0 98 70 168t168 70q97 0 166 -70t69 -168v-888q0 -98 -69 -167t-166 -69q-98 0 -168 69t-70 167zM190 236q0 -43 31.5 -74t75.5 -31q43 0 73.5 31t30.5 74v888q0 44 -30.5 75.5t-73.5 31.5q-44 0 -75.5 -31.5t-31.5 -75.5v-888z" />
<glyph unicode="P" horiz-adv-x="600" d="M59 33v583v132v579v2q0 12 10 22.5t23 10.5h203q97 0 166 -70t69 -168v-272q0 -98 -69 -167t-166 -69h-107v-583q0 -13 -9 -23t-21 -10h-66q-14 0 -23.5 10t-9.5 23zM188 748h107q43 0 73.5 30.5t30.5 73.5v272q0 44 -30.5 75.5t-73.5 31.5h-107v-483z" />
<glyph unicode="Q" d="M59 236v886q0 98 69.5 167t166.5 69t166 -69t69 -167v-886q0 -79 -48 -141.5t-122 -84.5v-108q0 -12 -9.5 -21.5t-22.5 -9.5h-66q-13 0 -23 9.5t-10 21.5v108q-74 22 -122 84.5t-48 141.5zM190 236q0 -43 31 -74t74 -31t73.5 31t30.5 74v886q0 44 -30.5 75.5t-73.5 31.5 t-74 -31.5t-31 -75.5v-886z" />
<glyph unicode="R" horiz-adv-x="630" d="M49 33v1263q0 27 19.5 46.5t46.5 19.5h170q98 0 166.5 -69.5t68.5 -168.5v-272q0 -102 -71 -170q71 -68 71 -172v-477q0 -13 -10 -23t-23 -10h-65q-14 0 -23.5 10t-9.5 23v477q0 44 -30.5 75t-73.5 31h-105v-583q0 -13 -10.5 -23t-22.5 -10h-65q-14 0 -23.5 10t-9.5 23z M180 748h105q43 0 73.5 30.5t30.5 73.5v272q0 44 -30.5 75.5t-73.5 31.5h-105v-483z" />
<glyph unicode="S" horiz-adv-x="600" d="M39 236v69q0 12 10 22.5t23 10.5h65q13 0 23 -10.5t10 -22.5v-69q0 -44 30.5 -75.5t73.5 -31.5t74 31.5t31 75.5v102q0 23 -6 33l-295 520q-29 53 -34 69t-5 62v104q0 97 69 166.5t166 69.5t166.5 -69.5t69.5 -166.5v-69q0 -13 -10 -23t-23 -10h-65q-14 0 -23.5 10 t-9.5 23v69q0 43 -31 74t-74 31t-73.5 -31t-30.5 -74v-104q0 -25 6 -35l295 -520q29 -52 34 -68.5t5 -60.5v-102q0 -98 -69.5 -167t-166.5 -69t-166 69t-69 167z" />
<glyph unicode="T" horiz-adv-x="509" d="M39 1264v65q0 12 10 22.5t23 10.5h315q13 0 23 -10.5t10 -22.5v-65q0 -14 -10 -23.5t-23 -9.5h-92v-1198q0 -13 -9.5 -23t-23.5 -10h-65q-13 0 -23 10t-10 23v1198h-92q-14 0 -23.5 9.5t-9.5 23.5z" />
<glyph unicode="U" d="M59 236v1093q0 12 10.5 22.5t22.5 10.5h66q13 0 22.5 -10.5t9.5 -22.5v-1093q0 -43 31.5 -74t75.5 -31q43 0 73.5 31t30.5 74v1093q0 12 10 22.5t23 10.5h66q13 0 22.5 -10.5t9.5 -22.5v-1093q0 -98 -69 -167t-166 -69q-98 0 -168 69t-70 167z" />
<glyph unicode="V" d="M59 342v987q0 12 10 22.5t23 10.5h66q12 0 22 -10.5t10 -22.5v-987q0 -8 5 -33l100 -176l98 176q6 15 6 33v987q0 12 10 22.5t23 10.5h66q13 0 22.5 -10.5t9.5 -22.5v-2v-985q0 -72 -38 -131l-111 -195q-10 -16 -29 -16h-114q-19 0 -29 16l-111 195q-39 61 -39 131z" />
<glyph unicode="W" horiz-adv-x="983" d="M59 342v985q0 13 9.5 23t23.5 10h66q13 0 22.5 -9.5t9.5 -23.5v-985q0 -15 7 -33l98 -176l100 176q6 15 6 33v985q0 13 9.5 23t23.5 10h66q13 0 22.5 -9.5t9.5 -23.5v-985q0 -15 7 -33l98 -176l100 176q4 20 4 33v985q0 13 10.5 23t22.5 10h66q13 0 22.5 -9.5t9.5 -23.5 v-985q0 -72 -38 -131l-111 -195q-10 -16 -29 -16h-114q-19 0 -29 16l-84 150l-86 -150q-10 -16 -29 -16h-112q-23 0 -29 16l-111 195q-41 59 -41 131z" />
<glyph unicode="X" d="M59 33v301q0 72 41 131l119 213l-119 211q-41 59 -41 131v309q0 12 10 22.5t23 10.5h66q13 0 22.5 -10.5t9.5 -22.5v-309q0 -16 7 -33l98 -176l100 176q6 15 6 33v309q0 12 10 22.5t23 10.5h66q13 0 22.5 -10.5t9.5 -22.5v-309q0 -73 -40 -131l-119 -211l119 -213 q40 -58 40 -131v-301q0 -14 -9.5 -23.5t-22.5 -9.5h-66q-14 0 -23.5 10t-9.5 23v301q0 18 -6 33l-100 176l-98 -176q-7 -17 -7 -33v-301q0 -14 -9.5 -23.5t-22.5 -9.5h-66q-14 0 -23.5 10t-9.5 23z" />
<glyph unicode="Y" horiz-adv-x="602" d="M39 852v477q0 12 10 22.5t23 10.5h65q13 0 23 -10.5t10 -22.5v-477q0 -43 31 -73.5t75 -30.5q43 0 74 30.5t31 73.5v477q0 12 10 22.5t23 10.5h65q13 0 23 -10.5t10 -22.5v-477q0 -80 -47.5 -142.5t-122.5 -84.5v-592q0 -13 -10.5 -23t-22.5 -10h-65q-14 0 -23.5 10 t-9.5 23v592q-76 22 -124 84t-48 143z" />
<glyph unicode="Z" horiz-adv-x="620" d="M59 33v301q0 46 5 62t34 69l297 522q4 10 4 33v211h-307q-14 0 -23.5 9.5t-9.5 23.5v65q0 12 10 22.5t23 10.5h406q13 0 22.5 -10.5t9.5 -22.5v-309q0 -45 -4.5 -61.5t-33.5 -69.5l-295 -520q-7 -12 -7 -35v-203h308q13 0 22.5 -10.5t9.5 -22.5v-65q0 -14 -9.5 -23.5 t-22.5 -9.5h-406q-14 0 -23.5 10t-9.5 23z" />
<glyph unicode="[" horiz-adv-x="509" d="M59 66v1230q0 28 19 47t47 19h242q13 0 22.5 -9.5t9.5 -23.5v-65q0 -14 -9.5 -23.5t-22.5 -9.5h-177v-1100h177q13 0 22.5 -9.5t9.5 -23.5v-65q0 -14 -9.5 -23.5t-22.5 -9.5h-242q-27 0 -46.5 19.5t-19.5 46.5z" />
<glyph unicode="\" d="M59 1022v307q0 13 9.5 23t23.5 10h66q13 0 22.5 -9.5t9.5 -23.5v-307q0 -23 7 -35l295 -522q30 -52 35 -68t5 -63v-301q0 -13 -10 -23t-22 -10h-66q-14 0 -23.5 10t-9.5 23v301q0 25 -6 35l-297 522q-29 53 -34 69t-5 62z" />
<glyph unicode="]" horiz-adv-x="509" d="M59 33v65q0 14 9.5 23.5t23.5 9.5h176v1100h-176q-14 0 -23.5 9.5t-9.5 23.5v65q0 13 9.5 23t23.5 10h242q28 0 46.5 -19t18.5 -47v-1230q0 -27 -19 -46.5t-46 -19.5h-242q-14 0 -23.5 10t-9.5 23z" />
<glyph unicode="^" horiz-adv-x="612" d="M63 1508q-6 11 3 26l118 209q16 32 58 39h77q42 -7 58 -39l119 -209q9 -15 2.5 -26t-25.5 -11h-63q-18 0 -37.5 11t-26.5 26l-65 115l-64 -115q-9 -15 -28 -26t-37 -11h-64q-19 0 -25 11z" />
<glyph unicode="`" horiz-adv-x="452" d="M64 1771q6 11 24 11h64q19 0 37.5 -11t27.5 -28l119 -207q9 -17 2.5 -28t-25.5 -11h-63q-19 0 -38 11t-28 28l-118 207q-8 17 -2 28z" />
<glyph unicode="a" d="M59 33v1091q0 98 70 168t168 70q97 0 166 -70t69 -168v-1091q0 -14 -9.5 -23.5t-22.5 -9.5h-66q-14 0 -23.5 10t-9.5 23v583h-211v-583q0 -14 -9.5 -23.5t-22.5 -9.5h-66q-12 0 -22.5 10t-10.5 23zM125 33zM190 748h211v376q0 44 -30.5 75.5t-73.5 31.5 q-44 0 -75.5 -31.5t-31.5 -75.5v-376z" />
<glyph unicode="b" d="M59 66v1230q0 26 20 46t46 20h172q97 0 166 -70t69 -168v-272q0 -102 -73 -172q73 -70 73 -170v-274q0 -97 -69 -166.5t-166 -69.5h-172q-27 0 -46.5 19.5t-19.5 46.5zM190 131h107q43 0 73.5 31t30.5 74v274q0 43 -30.5 73.5t-73.5 30.5h-107v-483zM190 745h107 q43 0 73.5 31.5t30.5 75.5v272q0 44 -30.5 75.5t-73.5 31.5h-107v-486z" />
<glyph unicode="c" horiz-adv-x="620" d="M59 236v890q0 97 69 166.5t167 69.5q97 0 166 -69.5t69 -166.5v-69q0 -14 -9.5 -23.5t-22.5 -9.5h-66q-14 0 -23.5 10t-9.5 23v69q0 43 -30.5 74t-73.5 31t-74 -31t-31 -74v-890q0 -43 31 -74t74 -31t73.5 31t30.5 74v75q0 13 9.5 23t23.5 10h66q13 0 22.5 -9.5 t9.5 -23.5v-75q0 -97 -69 -166.5t-166 -69.5q-98 0 -167 69.5t-69 166.5z" />
<glyph unicode="d" d="M59 66v1230q0 26 20 46t46 20h172q98 0 166.5 -69.5t68.5 -168.5v-888q0 -97 -68.5 -166.5t-166.5 -69.5h-172q-27 0 -46.5 19.5t-19.5 46.5zM190 131h107q43 0 73.5 31t30.5 74v888q0 44 -30.5 75.5t-73.5 31.5h-107v-1100z" />
<glyph unicode="e" horiz-adv-x="512" d="M59 66v1230q0 27 19.5 46.5t46.5 19.5h244q13 0 22.5 -10.5t9.5 -22.5v-65q0 -14 -9.5 -23.5t-22.5 -9.5h-179v-486h179q13 0 22.5 -9.5t9.5 -22.5v-66q0 -12 -9.5 -22.5t-22.5 -10.5h-179v-483h179q13 0 22.5 -10.5t9.5 -22.5v-65q0 -14 -9.5 -23.5t-22.5 -9.5h-244 q-28 0 -47 19t-19 47z" />
<glyph unicode="f" horiz-adv-x="512" d="M59 33v1263q0 26 20 46t46 20h244q13 0 22.5 -10.5t9.5 -22.5v-65q0 -14 -9.5 -23.5t-22.5 -9.5h-179v-486h179q13 0 22.5 -9.5t9.5 -22.5v-66q0 -12 -9.5 -22.5t-22.5 -10.5h-179v-581q0 -14 -9.5 -23.5t-22.5 -9.5h-66q-14 0 -23.5 10t-9.5 23z" />
<glyph unicode="g" horiz-adv-x="641" d="M59 236v890q0 97 69.5 166.5t166.5 69.5t166 -69.5t69 -166.5v-69q0 -14 -9.5 -23.5t-22.5 -9.5h-66q-14 0 -23.5 10t-9.5 23v69q0 43 -30.5 74t-73.5 31t-74 -31t-31 -74v-890q0 -43 31 -74t74 -31t73.5 31t30.5 74v382h-71q-14 0 -23.5 10t-9.5 23v66q0 13 9.5 23 t23.5 10h170q13 0 22.5 -9.5t9.5 -23.5v-481q0 -97 -69 -166.5t-166 -69.5t-166.5 69.5t-69.5 166.5z" />
<glyph unicode="h" horiz-adv-x="641" d="M59 33v1294v2q0 12 10 22.5t23 10.5h66q13 0 22.5 -10.5t9.5 -22.5v-584h211v584q0 12 10 22.5t23 10.5h64q13 0 22.5 -10.5t9.5 -22.5v-1296q0 -14 -9.5 -23.5t-22.5 -9.5h-64q-14 0 -23.5 10t-9.5 23v581h-211v-581q0 -14 -9.5 -23.5t-22.5 -9.5h-66q-14 0 -23.5 10 t-9.5 23z" />
<glyph unicode="i" horiz-adv-x="301" d="M59 33v1294v2q0 12 10 22.5t23 10.5h66q13 0 22.5 -10.5t9.5 -22.5v-1296q0 -14 -9.5 -23.5t-22.5 -9.5h-66q-14 0 -23.5 10t-9.5 23z" />
<glyph unicode="j" horiz-adv-x="641" d="M59 236v75q0 13 9.5 23t23.5 10h66q13 0 22.5 -9.5t9.5 -23.5v-75q0 -43 31 -74t74 -31t73.5 31t30.5 74v1093q0 13 10.5 23t22.5 10h66q13 0 22.5 -9.5t9.5 -23.5v-1093q0 -97 -68.5 -166.5t-166.5 -69.5q-97 0 -166.5 69.5t-69.5 166.5z" />
<glyph unicode="k" d="M59 33v583v132v579v2q0 12 10 22.5t23 10.5h66q13 0 22.5 -10.5t9.5 -22.5v-581h105q44 0 75 30.5t31 73.5v477q0 12 10 22.5t23 10.5h66q12 0 22 -10.5t10 -22.5v-477q0 -100 -73 -170q73 -70 73 -172v-477q0 -13 -10 -23t-22 -10h-66q-14 0 -23.5 10t-9.5 23v477 q0 44 -31 75t-75 31h-105v-583q0 -14 -9.5 -23.5t-22.5 -9.5h-66q-14 0 -23.5 10t-9.5 23z" />
<glyph unicode="l" horiz-adv-x="489" d="M59 66v1263q0 12 10 22.5t23 10.5h66q12 0 22 -10.5t10 -22.5v-1198h177q13 0 22.5 -10.5t9.5 -22.5v-65q0 -14 -9.5 -23.5t-22.5 -9.5h-242q-28 0 -47 19t-19 47z" />
<glyph unicode="m" horiz-adv-x="985" d="M59 33v1091q0 98 70 168t168 70q99 0 170 -74q71 74 170 74q98 0 167.5 -70t69.5 -168v-1091q0 -13 -10 -23t-22 -10h-66q-14 0 -23.5 10t-9.5 23v1091q0 44 -31 75.5t-75 31.5q-43 0 -74 -31.5t-31 -75.5v-1091q0 -14 -9.5 -23.5t-22.5 -9.5h-66q-14 0 -23.5 10t-9.5 23 v1091q0 44 -30.5 75.5t-73.5 31.5q-44 0 -75.5 -31.5t-31.5 -75.5v-1091q0 -14 -9.5 -23.5t-22.5 -9.5h-66q-12 0 -22.5 10t-10.5 23z" />
<glyph unicode="n" d="M59 33v1091q0 98 70 168t168 70q97 0 166 -70t69 -168v-1091q0 -14 -9.5 -23.5t-22.5 -9.5h-66q-14 0 -23.5 10t-9.5 23v1091q0 44 -30.5 75.5t-73.5 31.5q-44 0 -75.5 -31.5t-31.5 -75.5v-1091q0 -14 -9.5 -23.5t-22.5 -9.5h-66q-14 0 -23.5 10t-9.5 23z" />
<glyph unicode="o" d="M59 236v888q0 98 70 168t168 70q97 0 166 -70t69 -168v-888q0 -98 -69 -167t-166 -69q-98 0 -168 69t-70 167zM190 236q0 -43 31.5 -74t75.5 -31q43 0 73.5 31t30.5 74v888q0 44 -30.5 75.5t-73.5 31.5q-44 0 -75.5 -31.5t-31.5 -75.5v-888z" />
<glyph unicode="p" horiz-adv-x="600" d="M59 33v583v132v579v2q0 12 10 22.5t23 10.5h203q97 0 166 -70t69 -168v-272q0 -98 -69 -167t-166 -69h-107v-583q0 -13 -9 -23t-21 -10h-66q-14 0 -23.5 10t-9.5 23zM188 748h107q43 0 73.5 30.5t30.5 73.5v272q0 44 -30.5 75.5t-73.5 31.5h-107v-483z" />
<glyph unicode="q" d="M59 236v886q0 98 69.5 167t166.5 69t166 -69t69 -167v-886q0 -79 -48 -141.5t-122 -84.5v-108q0 -12 -9.5 -21.5t-22.5 -9.5h-66q-13 0 -23 9.5t-10 21.5v108q-74 22 -122 84.5t-48 141.5zM190 236q0 -43 31 -74t74 -31t73.5 31t30.5 74v886q0 44 -30.5 75.5t-73.5 31.5 t-74 -31.5t-31 -75.5v-886z" />
<glyph unicode="r" horiz-adv-x="630" d="M49 33v1263q0 27 19.5 46.5t46.5 19.5h170q98 0 166.5 -69.5t68.5 -168.5v-272q0 -102 -71 -170q71 -68 71 -172v-477q0 -13 -10 -23t-23 -10h-65q-14 0 -23.5 10t-9.5 23v477q0 44 -30.5 75t-73.5 31h-105v-583q0 -13 -10.5 -23t-22.5 -10h-65q-14 0 -23.5 10t-9.5 23z M180 748h105q43 0 73.5 30.5t30.5 73.5v272q0 44 -30.5 75.5t-73.5 31.5h-105v-483z" />
<glyph unicode="s" horiz-adv-x="600" d="M39 236v69q0 12 10 22.5t23 10.5h65q13 0 23 -10.5t10 -22.5v-69q0 -44 30.5 -75.5t73.5 -31.5t74 31.5t31 75.5v102q0 23 -6 33l-295 520q-29 53 -34 69t-5 62v104q0 97 69 166.5t166 69.5t166.5 -69.5t69.5 -166.5v-69q0 -13 -10 -23t-23 -10h-65q-14 0 -23.5 10 t-9.5 23v69q0 43 -31 74t-74 31t-73.5 -31t-30.5 -74v-104q0 -25 6 -35l295 -520q29 -52 34 -68.5t5 -60.5v-102q0 -98 -69.5 -167t-166.5 -69t-166 69t-69 167z" />
<glyph unicode="t" horiz-adv-x="509" d="M39 1264v65q0 12 10 22.5t23 10.5h315q13 0 23 -10.5t10 -22.5v-65q0 -14 -10 -23.5t-23 -9.5h-92v-1198q0 -13 -9.5 -23t-23.5 -10h-65q-13 0 -23 10t-10 23v1198h-92q-14 0 -23.5 9.5t-9.5 23.5z" />
<glyph unicode="u" d="M59 236v1093q0 12 10.5 22.5t22.5 10.5h66q13 0 22.5 -10.5t9.5 -22.5v-1093q0 -43 31.5 -74t75.5 -31q43 0 73.5 31t30.5 74v1093q0 12 10 22.5t23 10.5h66q13 0 22.5 -10.5t9.5 -22.5v-1093q0 -98 -69 -167t-166 -69q-98 0 -168 69t-70 167z" />
<glyph unicode="v" d="M59 342v987q0 12 10 22.5t23 10.5h66q12 0 22 -10.5t10 -22.5v-987q0 -8 5 -33l100 -176l98 176q6 15 6 33v987q0 12 10 22.5t23 10.5h66q13 0 22.5 -10.5t9.5 -22.5v-2v-985q0 -72 -38 -131l-111 -195q-10 -16 -29 -16h-114q-19 0 -29 16l-111 195q-39 61 -39 131z" />
<glyph unicode="w" horiz-adv-x="983" d="M59 342v985q0 13 9.5 23t23.5 10h66q13 0 22.5 -9.5t9.5 -23.5v-985q0 -15 7 -33l98 -176l100 176q6 15 6 33v985q0 13 9.5 23t23.5 10h66q13 0 22.5 -9.5t9.5 -23.5v-985q0 -15 7 -33l98 -176l100 176q4 20 4 33v985q0 13 10.5 23t22.5 10h66q13 0 22.5 -9.5t9.5 -23.5 v-985q0 -72 -38 -131l-111 -195q-10 -16 -29 -16h-114q-19 0 -29 16l-84 150l-86 -150q-10 -16 -29 -16h-112q-23 0 -29 16l-111 195q-41 59 -41 131z" />
<glyph unicode="x" d="M59 33v301q0 72 41 131l119 213l-119 211q-41 59 -41 131v309q0 12 10 22.5t23 10.5h66q13 0 22.5 -10.5t9.5 -22.5v-309q0 -16 7 -33l98 -176l100 176q6 15 6 33v309q0 12 10 22.5t23 10.5h66q13 0 22.5 -10.5t9.5 -22.5v-309q0 -73 -40 -131l-119 -211l119 -213 q40 -58 40 -131v-301q0 -14 -9.5 -23.5t-22.5 -9.5h-66q-14 0 -23.5 10t-9.5 23v301q0 18 -6 33l-100 176l-98 -176q-7 -17 -7 -33v-301q0 -14 -9.5 -23.5t-22.5 -9.5h-66q-14 0 -23.5 10t-9.5 23z" />
<glyph unicode="y" horiz-adv-x="602" d="M39 852v477q0 12 10 22.5t23 10.5h65q13 0 23 -10.5t10 -22.5v-477q0 -43 31 -73.5t75 -30.5q43 0 74 30.5t31 73.5v477q0 12 10 22.5t23 10.5h65q13 0 23 -10.5t10 -22.5v-477q0 -80 -47.5 -142.5t-122.5 -84.5v-592q0 -13 -10.5 -23t-22.5 -10h-65q-14 0 -23.5 10 t-9.5 23v592q-76 22 -124 84t-48 143z" />
<glyph unicode="z" horiz-adv-x="620" d="M59 33v301q0 46 5 62t34 69l297 522q4 10 4 33v211h-307q-14 0 -23.5 9.5t-9.5 23.5v65q0 12 10 22.5t23 10.5h406q13 0 22.5 -10.5t9.5 -22.5v-309q0 -45 -4.5 -61.5t-33.5 -69.5l-295 -520q-7 -12 -7 -35v-203h308q13 0 22.5 -10.5t9.5 -22.5v-65q0 -14 -9.5 -23.5 t-22.5 -9.5h-406q-14 0 -23.5 10t-9.5 23z" />
<glyph unicode="&#xa1;" horiz-adv-x="301" d="M59 -90v1091q0 13 9.5 23t23.5 10h66q13 0 22.5 -9.5t9.5 -23.5v-1091q0 -14 -9.5 -23.5t-22.5 -9.5h-66q-14 0 -23.5 9.5t-9.5 23.5zM59 1198v135q0 13 9.5 23t23.5 10h66q13 0 22.5 -9.5t9.5 -23.5v-135q0 -14 -9.5 -23.5t-22.5 -9.5h-66q-14 0 -23.5 9.5t-9.5 23.5z " />
<glyph unicode="&#xa8;" horiz-adv-x="509" d="M59 1530v135q0 13 9.5 23t23.5 10h66q13 0 22.5 -9.5t9.5 -23.5v-135q0 -14 -9.5 -23.5t-22.5 -9.5h-66q-14 0 -23.5 9.5t-9.5 23.5zM268 1530v135q0 13 10.5 23t22.5 10h66q13 0 22.5 -9.5t9.5 -23.5v-135q0 -14 -9.5 -23.5t-22.5 -9.5h-66q-12 0 -22.5 10t-10.5 23z " />
<glyph unicode="&#xad;" horiz-adv-x="571" d="M59 649v66q0 13 10.5 23t22.5 10h336q14 0 23.5 -10t9.5 -23v-66q0 -13 -9.5 -23t-23.5 -10h-336q-12 0 -22.5 10t-10.5 23z" />
<glyph unicode="&#xaf;" horiz-adv-x="1705" />
<glyph unicode="&#xb4;" horiz-adv-x="450" d="M63 1508q-6 11 3 28l118 207q7 17 26.5 28t37.5 11h65q17 0 23.5 -11t-2.5 -28l-117 -207q-9 -17 -27.5 -28t-37.5 -11h-64q-19 0 -25 11z" />
<glyph unicode="&#xb7;" horiz-adv-x="1705" />
<glyph unicode="&#xb8;" horiz-adv-x="1705" />
<glyph unicode="&#xbf;" horiz-adv-x="641" d="M59 109v104q0 46 5 62.5t34 68.5l295 520q6 10 6 35v98q0 13 9.5 23t23.5 10h66q13 0 22.5 -9.5t9.5 -23.5v-98q0 -46 -5 -62.5t-36 -68.5l-294 -520q-5 -12 -5 -35v-104q0 -43 31 -74t74 -31t73.5 31t30.5 74v69q0 14 9.5 23.5t23.5 9.5h66q13 0 22.5 -9.5t9.5 -23.5 v-69q0 -97 -69 -166.5t-166 -69.5q-98 0 -167 69.5t-69 166.5zM399 1194v135q0 13 9.5 23t23.5 10h66q13 0 22.5 -9.5t9.5 -23.5v-135q0 -14 -9.5 -23.5t-22.5 -9.5h-66q-14 0 -23.5 9.5t-9.5 23.5z" />
<glyph unicode="&#xc0;" d="M59 33v1091q0 98 70 168t168 70q97 0 166 -70t69 -168v-1091q0 -14 -9.5 -23.5t-22.5 -9.5h-66q-14 0 -23.5 10t-9.5 23v583h-211v-583q0 -14 -9.5 -23.5t-22.5 -9.5h-66q-12 0 -22.5 10t-10.5 23zM80 1771q6 11 24 11h64q19 0 37.5 -11t27.5 -28l119 -207q9 -17 3 -28 t-25 -11h-64q-19 0 -37.5 11t-27.5 28l-119 207q-8 17 -2 28zM125 33zM190 748h211v376q0 44 -30.5 75.5t-73.5 31.5q-44 0 -75.5 -31.5t-31.5 -75.5v-376z" />
<glyph unicode="&#xc1;" d="M59 33v1091q0 98 70 168t168 70q97 0 166 -70t69 -168v-1091q0 -14 -9.5 -23.5t-22.5 -9.5h-66q-14 0 -23.5 10t-9.5 23v583h-211v-583q0 -14 -9.5 -23.5t-22.5 -9.5h-66q-12 0 -22.5 10t-10.5 23zM125 33zM190 748h211v376q0 44 -30.5 75.5t-73.5 31.5 q-44 0 -75.5 -31.5t-31.5 -75.5v-376zM228.5 1508q-6.5 11 2.5 26l119 209q7 15 26.5 26t37.5 11h63q19 0 25.5 -11t-2.5 -26l-119 -209q-7 -15 -26.5 -26t-37.5 -11h-63q-19 0 -25.5 11z" />
<glyph unicode="&#xc2;" d="M59 33v1091q0 98 70 168t168 70q97 0 166 -70t69 -168v-1091q0 -14 -9.5 -23.5t-22.5 -9.5h-66q-14 0 -23.5 10t-9.5 23v583h-211v-583q0 -14 -9.5 -23.5t-22.5 -9.5h-66q-12 0 -22.5 10t-10.5 23zM77 1506q-6 11 3 26l119 209q8 14 24 25t33 12q2 2 39 2t39 -2 q17 -1 33 -12t24 -25l119 -209q9 -15 2.5 -26t-25.5 -11h-63q-19 0 -38 11t-28 26l-63 115l-64 -115q-9 -15 -28.5 -26t-36.5 -11h-64q-19 0 -25 11zM125 33zM190 748h211v376q0 44 -30.5 75.5t-73.5 31.5q-44 0 -75.5 -31.5t-31.5 -75.5v-376z" />
<glyph unicode="&#xc3;" horiz-adv-x="1705" />
<glyph unicode="&#xc4;" d="M59 33v1091q0 98 70 168t168 70q97 0 166 -70t69 -168v-1091q0 -14 -9.5 -23.5t-22.5 -9.5h-66q-14 0 -23.5 10t-9.5 23v583h-211v-583q0 -14 -9.5 -23.5t-22.5 -9.5h-66q-12 0 -22.5 10t-10.5 23zM125 33zM125 1530v135q0 12 10 22.5t23 10.5h65q13 0 23 -10.5t10 -22.5 v-135q0 -14 -10 -23.5t-23 -9.5h-65q-14 0 -23.5 9.5t-9.5 23.5zM190 748h211v376q0 44 -30.5 75.5t-73.5 31.5q-44 0 -75.5 -31.5t-31.5 -75.5v-376zM336 1530v135q0 12 10 22.5t23 10.5h63q13 0 23 -10.5t10 -22.5v-135q0 -14 -9.5 -23.5t-23.5 -9.5h-63q-13 0 -23 9.5 t-10 23.5z" />
<glyph unicode="&#xc5;" horiz-adv-x="1705" />
<glyph unicode="&#xc6;" horiz-adv-x="1705" />
<glyph unicode="&#xc7;" horiz-adv-x="641" d="M59 236v890q0 97 69.5 166.5t166.5 69.5t166 -69.5t69 -166.5v-69q0 -14 -9.5 -23.5t-22.5 -9.5h-66q-14 0 -23.5 10t-9.5 23v69q0 43 -30.5 74t-73.5 31t-74 -31t-31 -74v-890q0 -44 31 -75.5t74 -31.5t73.5 31.5t30.5 75.5v75q0 13 9.5 23t23.5 10h66q13 0 22.5 -9.5 t9.5 -23.5v-75q0 -81 -47.5 -143.5t-122.5 -84.5v-102q0 -14 -9.5 -23.5t-22.5 -9.5h-66q-14 0 -23.5 9.5t-9.5 23.5v102q-75 22 -122.5 84.5t-47.5 143.5z" />
<glyph unicode="&#xc8;" horiz-adv-x="512" d="M13.5 1771q6.5 11 25.5 11h63q18 0 37.5 -11t26.5 -28l119 -207q9 -17 2.5 -28t-25.5 -11h-63q-18 0 -37.5 11t-26.5 28l-119 207q-9 17 -2.5 28zM59 66v1230q0 27 19.5 46.5t46.5 19.5h244q13 0 22.5 -10.5t9.5 -22.5v-65q0 -14 -9.5 -23.5t-22.5 -9.5h-179v-486h179 q13 0 22.5 -9.5t9.5 -22.5v-66q0 -12 -9.5 -22.5t-22.5 -10.5h-179v-483h179q13 0 22.5 -10.5t9.5 -22.5v-65q0 -14 -9.5 -23.5t-22.5 -9.5h-244q-28 0 -47 19t-19 47z" />
<glyph unicode="&#xc9;" horiz-adv-x="550" d="M59 66v1230q0 27 19.5 46.5t46.5 19.5h244q13 0 22.5 -10.5t9.5 -22.5v-65q0 -14 -9.5 -23.5t-22.5 -9.5h-179v-486h179q13 0 22.5 -9.5t9.5 -22.5v-66q0 -12 -9.5 -22.5t-22.5 -10.5h-179v-483h179q13 0 22.5 -10.5t9.5 -22.5v-65q0 -14 -9.5 -23.5t-22.5 -9.5h-244 q-28 0 -47 19t-19 47zM163 1508q-6 11 3 28l119 207q7 17 26 28t37 11h66q17 0 23 -11t-3 -28l-117 -207q-9 -17 -27.5 -28t-37.5 -11h-64q-19 0 -25 11z" />
<glyph unicode="&#xca;" horiz-adv-x="512" d="M12.5 1508q-6.5 11 1.5 28l119 207q16 31 60 39h75q44 -8 60 -39l118 -207q9 -17 3 -28t-25 -11h-64q-19 0 -37.5 11t-27.5 28l-64 113l-65 -113q-9 -17 -28 -28t-38 -11h-63q-18 0 -24.5 11zM59 66v1230q0 27 19.5 46.5t46.5 19.5h244q13 0 22.5 -10.5t9.5 -22.5v-65 q0 -14 -9.5 -23.5t-22.5 -9.5h-179v-486h179q13 0 22.5 -9.5t9.5 -22.5v-66q0 -12 -9.5 -22.5t-22.5 -10.5h-179v-483h179q13 0 22.5 -10.5t9.5 -22.5v-65q0 -14 -9.5 -23.5t-22.5 -9.5h-244q-28 0 -47 19t-19 47z" />
<glyph unicode="&#xcb;" horiz-adv-x="512" d="M59 66v1230q0 27 19.5 46.5t46.5 19.5h244q13 0 22.5 -10.5t9.5 -22.5v-65q0 -14 -9.5 -23.5t-22.5 -9.5h-179v-486h179q13 0 22.5 -9.5t9.5 -22.5v-66q0 -12 -9.5 -22.5t-22.5 -10.5h-179v-483h179q13 0 22.5 -10.5t9.5 -22.5v-65q0 -14 -9.5 -23.5t-22.5 -9.5h-244 q-28 0 -47 19t-19 47zM59 1530v135q0 13 9.5 23t23.5 10h66q12 0 22 -10t10 -23v-135q0 -13 -10 -23t-22 -10h-66q-14 0 -23.5 9.5t-9.5 23.5zM268 1530v135q0 13 10 23t23 10h66q13 0 22.5 -9.5t9.5 -23.5v-135q0 -14 -9.5 -23.5t-22.5 -9.5h-66q-13 0 -23 9.5t-10 23.5z " />
<glyph unicode="&#xcc;" horiz-adv-x="301" d="M-90 1770q6 12 24 12h64q18 0 37 -11.5t28 -27.5l119 -209q9 -15 3 -26t-25 -11h-64q-18 0 -37 11t-28 26l-119 209q-8 15 -2 27zM59 33v1294v2q0 12 10 22.5t23 10.5h66q13 0 22.5 -10.5t9.5 -22.5v-1296q0 -14 -9.5 -23.5t-22.5 -9.5h-66q-14 0 -23.5 10t-9.5 23z" />
<glyph unicode="&#xcd;" horiz-adv-x="301" d="M57.5 1508q-6.5 11 1.5 28l119 207q9 17 28 28t38 11h63q19 0 25.5 -11t-2.5 -28l-119 -207q-9 -17 -28 -28t-38 -11h-63q-18 0 -24.5 11zM59 33v1294v2q0 12 10 22.5t23 10.5h66q13 0 22.5 -10.5t9.5 -22.5v-1296q0 -14 -9.5 -23.5t-22.5 -9.5h-66q-14 0 -23.5 10 t-9.5 23z" />
<glyph unicode="&#xce;" horiz-adv-x="301" d="M-94 1508q-6 11 2 26l119 209q20 34 59 37q2 2 39 2t37 -2q42 -3 59 -37l119 -209q9 -15 2.5 -26t-25.5 -11h-63q-19 0 -38 11t-28 26l-63 115l-66 -115q-9 -15 -28 -26t-37 -11h-64q-18 0 -24 11zM59 33v1294v2q0 12 10 22.5t23 10.5h66q13 0 22.5 -10.5t9.5 -22.5 v-1296q0 -14 -9.5 -23.5t-22.5 -9.5h-66q-14 0 -23.5 10t-9.5 23z" />
<glyph unicode="&#xcf;" horiz-adv-x="301" d="M-45 1528v137q0 12 10 22.5t23 10.5h65q13 0 23 -10.5t10 -22.5v-137q0 -12 -10 -21.5t-23 -9.5h-65q-13 0 -23 9.5t-10 21.5zM59 33v1294v2q0 12 10 22.5t23 10.5h66q13 0 22.5 -10.5t9.5 -22.5v-1296q0 -14 -9.5 -23.5t-22.5 -9.5h-66q-14 0 -23.5 10t-9.5 23z M164 1528v137q0 12 10 22.5t23 10.5h65q13 0 23 -10.5t10 -22.5v-137q0 -12 -10 -21.5t-23 -9.5h-65q-13 0 -23 9.5t-10 21.5z" />
<glyph unicode="&#xd1;" horiz-adv-x="641" d="M59 33v1091q0 98 70 168t168 70q97 0 166 -70t69 -168v-1091q0 -14 -9.5 -23.5t-22.5 -9.5h-66q-14 0 -23.5 10t-9.5 23v1091q0 44 -30.5 75.5t-73.5 31.5q-44 0 -75.5 -31.5t-31.5 -75.5v-1091q0 -14 -9.5 -23.5t-22.5 -9.5h-66q-14 0 -23.5 10t-9.5 23zM125 1532v65 q0 13 9.5 23t23.5 10h276q14 0 23.5 -10t9.5 -23v-65q0 -14 -9.5 -23.5t-23.5 -9.5h-276q-14 0 -23.5 9.5t-9.5 23.5z" />
<glyph unicode="&#xd2;" d="M59 236v888q0 98 70 168t168 70q97 0 166 -70t69 -168v-888q0 -98 -69 -167t-166 -69q-98 0 -168 69t-70 167zM79.5 1770q6.5 12 24.5 12h64q18 0 37 -11.5t28 -27.5l119 -209q8 -15 2 -26t-24 -11h-64q-18 0 -37 11t-28 26l-119 209q-9 15 -2.5 27zM190 236 q0 -43 31.5 -74t75.5 -31q43 0 73.5 31t30.5 74v888q0 44 -30.5 75.5t-73.5 31.5q-44 0 -75.5 -31.5t-31.5 -75.5v-888z" />
<glyph unicode="&#xd3;" d="M59 236v888q0 98 70 168t168 70q97 0 166 -70t69 -168v-888q0 -98 -69 -167t-166 -69q-98 0 -168 69t-70 167zM190 236q0 -43 31.5 -74t75.5 -31q43 0 73.5 31t30.5 74v888q0 44 -30.5 75.5t-73.5 31.5q-44 0 -75.5 -31.5t-31.5 -75.5v-888zM237.5 1507q-6.5 12 2.5 27 l118 209q9 15 28 26t38 11h63q18 0 24.5 -11t-1.5 -26l-119 -209q-9 -16 -28 -27.5t-37 -11.5h-64q-18 0 -24.5 12z" />
<glyph unicode="&#xd4;" horiz-adv-x="641" d="M59 236v888q0 98 70 168t168 70q97 0 166 -70t69 -168v-888q0 -98 -69 -167t-166 -69q-98 0 -168 69t-70 167zM77 1508q-6 11 3 26l119 209q16 32 57 39h78q41 -7 57 -39l119 -209q9 -15 2.5 -26t-25.5 -11h-63q-18 0 -37.5 11t-26.5 26l-65 115l-66 -115 q-7 -15 -26.5 -26t-36.5 -11h-64q-19 0 -25 11zM190 236q0 -43 31.5 -74t75.5 -31q43 0 73.5 31t30.5 74v888q0 44 -30.5 75.5t-73.5 31.5q-44 0 -75.5 -31.5t-31.5 -75.5v-888z" />
<glyph unicode="&#xd5;" horiz-adv-x="1705" />
<glyph unicode="&#xd6;" d="M59 236v888q0 98 70 168t168 70q97 0 166 -70t69 -168v-888q0 -98 -69 -167t-166 -69q-98 0 -168 69t-70 167zM125 1530v135q0 13 9.5 23t23.5 10h65q13 0 23 -10t10 -23v-135q0 -14 -10 -23.5t-23 -9.5h-65q-14 0 -23.5 9.5t-9.5 23.5zM190 236q0 -43 31.5 -74t75.5 -31 q43 0 73.5 31t30.5 74v888q0 44 -30.5 75.5t-73.5 31.5q-44 0 -75.5 -31.5t-31.5 -75.5v-888zM334 1530v135q0 13 10.5 23t22.5 10h65q14 0 23.5 -10t9.5 -23v-135q0 -14 -9.5 -23.5t-23.5 -9.5h-65q-12 0 -22.5 10t-10.5 23z" />
<glyph unicode="&#xd8;" horiz-adv-x="1705" />
<glyph unicode="&#xd9;" d="M59 236v1093q0 12 10.5 22.5t22.5 10.5h66q13 0 22.5 -10.5t9.5 -22.5v-1093q0 -43 31.5 -74t75.5 -31q43 0 73.5 31t30.5 74v1093q0 12 10 22.5t23 10.5h66q13 0 22.5 -10.5t9.5 -22.5v-1093q0 -98 -69 -167t-166 -69q-98 0 -168 69t-70 167zM79 1769q6 11 23 11h66 q17 0 36.5 -11t26.5 -26l119 -209q9 -15 2.5 -27t-24.5 -12h-64q-18 0 -37 11.5t-28 27.5l-117 209q-9 15 -3 26z" />
<glyph unicode="&#xda;" d="M59 236v1093q0 12 10.5 22.5t22.5 10.5h66q13 0 22.5 -10.5t9.5 -22.5v-1093q0 -43 31.5 -74t75.5 -31q43 0 73.5 31t30.5 74v1093q0 12 10 22.5t23 10.5h66q13 0 22.5 -10.5t9.5 -22.5v-1093q0 -98 -69 -167t-166 -69q-98 0 -168 69t-70 167zM226.5 1508q-6.5 11 2.5 26 l119 209q9 15 28 27t36 12h65q17 0 23.5 -12t-2.5 -27l-117 -209q-9 -15 -28 -26t-38 -11h-63q-19 0 -25.5 11z" />
<glyph unicode="&#xdb;" d="M59 236v1093q0 12 10.5 22.5t22.5 10.5h66q13 0 22.5 -10.5t9.5 -22.5v-1093q0 -43 31.5 -74t75.5 -31q43 0 73.5 31t30.5 74v1093q0 12 10 22.5t23 10.5h66q13 0 22.5 -10.5t9.5 -22.5v-1093q0 -98 -69 -167t-166 -69q-98 0 -168 69t-70 167zM77 1508q-6 11 3 26 l119 209q16 32 57 39h78q41 -7 57 -39l119 -209q9 -15 2.5 -26t-25.5 -11h-63q-18 0 -37.5 11t-26.5 26l-65 115l-64 -115q-9 -15 -28 -26t-37 -11h-64q-19 0 -25 11z" />
<glyph unicode="&#xdc;" d="M59 236v1093q0 12 10.5 22.5t22.5 10.5h66q13 0 22.5 -10.5t9.5 -22.5v-1093q0 -43 31.5 -74t75.5 -31q43 0 73.5 31t30.5 74v1093q0 12 10 22.5t23 10.5h66q13 0 22.5 -10.5t9.5 -22.5v-1093q0 -98 -69 -167t-166 -69q-98 0 -168 69t-70 167zM125 1528v135q0 13 9.5 23 t23.5 10h65q13 0 23 -10t10 -23v-135q0 -12 -10 -22.5t-23 -10.5h-65q-13 0 -23 10.5t-10 22.5zM336 1528v135q0 13 10 23t23 10h63q14 0 23.5 -10t9.5 -23v-135q0 -12 -10 -22.5t-23 -10.5h-63q-13 0 -23 10.5t-10 22.5z" />
<glyph unicode="&#xdd;" horiz-adv-x="1705" />
<glyph unicode="&#xe0;" d="M59 33v1091q0 98 70 168t168 70q97 0 166 -70t69 -168v-1091q0 -14 -9.5 -23.5t-22.5 -9.5h-66q-14 0 -23.5 10t-9.5 23v583h-211v-583q0 -14 -9.5 -23.5t-22.5 -9.5h-66q-12 0 -22.5 10t-10.5 23zM80 1771q6 11 24 11h64q19 0 37.5 -11t27.5 -28l119 -207q9 -17 3 -28 t-25 -11h-64q-19 0 -37.5 11t-27.5 28l-119 207q-8 17 -2 28zM125 33zM190 748h211v376q0 44 -30.5 75.5t-73.5 31.5q-44 0 -75.5 -31.5t-31.5 -75.5v-376z" />
<glyph unicode="&#xe1;" d="M59 33v1091q0 98 70 168t168 70q97 0 166 -70t69 -168v-1091q0 -14 -9.5 -23.5t-22.5 -9.5h-66q-14 0 -23.5 10t-9.5 23v583h-211v-583q0 -14 -9.5 -23.5t-22.5 -9.5h-66q-12 0 -22.5 10t-10.5 23zM125 33zM190 748h211v376q0 44 -30.5 75.5t-73.5 31.5 q-44 0 -75.5 -31.5t-31.5 -75.5v-376zM228.5 1508q-6.5 11 2.5 26l119 209q7 15 26.5 26t37.5 11h63q19 0 25.5 -11t-2.5 -26l-119 -209q-7 -15 -26.5 -26t-37.5 -11h-63q-19 0 -25.5 11z" />
<glyph unicode="&#xe2;" d="M59 33v1091q0 98 70 168t168 70q97 0 166 -70t69 -168v-1091q0 -14 -9.5 -23.5t-22.5 -9.5h-66q-14 0 -23.5 10t-9.5 23v583h-211v-583q0 -14 -9.5 -23.5t-22.5 -9.5h-66q-12 0 -22.5 10t-10.5 23zM77 1506q-6 11 3 26l119 209q8 14 24 25t33 12q2 2 39 2t39 -2 q17 -1 33 -12t24 -25l119 -209q9 -15 2.5 -26t-25.5 -11h-63q-19 0 -38 11t-28 26l-63 115l-64 -115q-9 -15 -28.5 -26t-36.5 -11h-64q-19 0 -25 11zM125 33zM190 748h211v376q0 44 -30.5 75.5t-73.5 31.5q-44 0 -75.5 -31.5t-31.5 -75.5v-376z" />
<glyph unicode="&#xe4;" d="M59 33v1091q0 98 70 168t168 70q97 0 166 -70t69 -168v-1091q0 -14 -9.5 -23.5t-22.5 -9.5h-66q-14 0 -23.5 10t-9.5 23v583h-211v-583q0 -14 -9.5 -23.5t-22.5 -9.5h-66q-12 0 -22.5 10t-10.5 23zM125 33zM125 1530v135q0 12 10 22.5t23 10.5h65q13 0 23 -10.5t10 -22.5 v-135q0 -14 -10 -23.5t-23 -9.5h-65q-14 0 -23.5 9.5t-9.5 23.5zM190 748h211v376q0 44 -30.5 75.5t-73.5 31.5q-44 0 -75.5 -31.5t-31.5 -75.5v-376zM336 1530v135q0 12 10 22.5t23 10.5h63q13 0 23 -10.5t10 -22.5v-135q0 -14 -9.5 -23.5t-23.5 -9.5h-63q-13 0 -23 9.5 t-10 23.5z" />
<glyph unicode="&#xe7;" horiz-adv-x="641" d="M59 236v890q0 97 69.5 166.5t166.5 69.5t166 -69.5t69 -166.5v-69q0 -14 -9.5 -23.5t-22.5 -9.5h-66q-14 0 -23.5 10t-9.5 23v69q0 43 -30.5 74t-73.5 31t-74 -31t-31 -74v-890q0 -44 31 -75.5t74 -31.5t73.5 31.5t30.5 75.5v75q0 13 9.5 23t23.5 10h66q13 0 22.5 -9.5 t9.5 -23.5v-75q0 -81 -47.5 -143.5t-122.5 -84.5v-102q0 -14 -9.5 -23.5t-22.5 -9.5h-66q-14 0 -23.5 9.5t-9.5 23.5v102q-75 22 -122.5 84.5t-47.5 143.5z" />
<glyph unicode="&#xe8;" horiz-adv-x="512" d="M13.5 1771q6.5 11 25.5 11h63q18 0 37.5 -11t26.5 -28l119 -207q9 -17 2.5 -28t-25.5 -11h-63q-18 0 -37.5 11t-26.5 28l-119 207q-9 17 -2.5 28zM59 66v1230q0 27 19.5 46.5t46.5 19.5h244q13 0 22.5 -10.5t9.5 -22.5v-65q0 -14 -9.5 -23.5t-22.5 -9.5h-179v-486h179 q13 0 22.5 -9.5t9.5 -22.5v-66q0 -12 -9.5 -22.5t-22.5 -10.5h-179v-483h179q13 0 22.5 -10.5t9.5 -22.5v-65q0 -14 -9.5 -23.5t-22.5 -9.5h-244q-28 0 -47 19t-19 47z" />
<glyph unicode="&#xe9;" horiz-adv-x="550" d="M59 66v1230q0 27 19.5 46.5t46.5 19.5h244q13 0 22.5 -10.5t9.5 -22.5v-65q0 -14 -9.5 -23.5t-22.5 -9.5h-179v-486h179q13 0 22.5 -9.5t9.5 -22.5v-66q0 -12 -9.5 -22.5t-22.5 -10.5h-179v-483h179q13 0 22.5 -10.5t9.5 -22.5v-65q0 -14 -9.5 -23.5t-22.5 -9.5h-244 q-28 0 -47 19t-19 47zM163 1508q-6 11 3 28l119 207q7 17 26 28t37 11h66q17 0 23 -11t-3 -28l-117 -207q-9 -17 -27.5 -28t-37.5 -11h-64q-19 0 -25 11z" />
<glyph unicode="&#xea;" horiz-adv-x="512" d="M12.5 1508q-6.5 11 1.5 28l119 207q16 31 60 39h75q44 -8 60 -39l118 -207q9 -17 3 -28t-25 -11h-64q-19 0 -37.5 11t-27.5 28l-64 113l-65 -113q-9 -17 -28 -28t-38 -11h-63q-18 0 -24.5 11zM59 66v1230q0 27 19.5 46.5t46.5 19.5h244q13 0 22.5 -10.5t9.5 -22.5v-65 q0 -14 -9.5 -23.5t-22.5 -9.5h-179v-486h179q13 0 22.5 -9.5t9.5 -22.5v-66q0 -12 -9.5 -22.5t-22.5 -10.5h-179v-483h179q13 0 22.5 -10.5t9.5 -22.5v-65q0 -14 -9.5 -23.5t-22.5 -9.5h-244q-28 0 -47 19t-19 47z" />
<glyph unicode="&#xeb;" horiz-adv-x="512" d="M59 66v1230q0 27 19.5 46.5t46.5 19.5h244q13 0 22.5 -10.5t9.5 -22.5v-65q0 -14 -9.5 -23.5t-22.5 -9.5h-179v-486h179q13 0 22.5 -9.5t9.5 -22.5v-66q0 -12 -9.5 -22.5t-22.5 -10.5h-179v-483h179q13 0 22.5 -10.5t9.5 -22.5v-65q0 -14 -9.5 -23.5t-22.5 -9.5h-244 q-28 0 -47 19t-19 47zM59 1530v135q0 13 9.5 23t23.5 10h66q12 0 22 -10t10 -23v-135q0 -13 -10 -23t-22 -10h-66q-14 0 -23.5 9.5t-9.5 23.5zM268 1530v135q0 13 10 23t23 10h66q13 0 22.5 -9.5t9.5 -23.5v-135q0 -14 -9.5 -23.5t-22.5 -9.5h-66q-13 0 -23 9.5t-10 23.5z " />
<glyph unicode="&#xec;" horiz-adv-x="301" d="M-90 1770q6 12 24 12h64q18 0 37 -11.5t28 -27.5l119 -209q9 -15 3 -26t-25 -11h-64q-18 0 -37 11t-28 26l-119 209q-8 15 -2 27zM59 33v1294v2q0 12 10 22.5t23 10.5h66q13 0 22.5 -10.5t9.5 -22.5v-1296q0 -14 -9.5 -23.5t-22.5 -9.5h-66q-14 0 -23.5 10t-9.5 23z" />
<glyph unicode="&#xed;" horiz-adv-x="301" d="M57.5 1508q-6.5 11 1.5 28l119 207q9 17 28 28t38 11h63q19 0 25.5 -11t-2.5 -28l-119 -207q-9 -17 -28 -28t-38 -11h-63q-18 0 -24.5 11zM59 33v1294v2q0 12 10 22.5t23 10.5h66q13 0 22.5 -10.5t9.5 -22.5v-1296q0 -14 -9.5 -23.5t-22.5 -9.5h-66q-14 0 -23.5 10 t-9.5 23z" />
<glyph unicode="&#xee;" horiz-adv-x="301" d="M-94 1508q-6 11 2 26l119 209q20 34 59 37q2 2 39 2t37 -2q42 -3 59 -37l119 -209q9 -15 2.5 -26t-25.5 -11h-63q-19 0 -38 11t-28 26l-63 115l-66 -115q-9 -15 -28 -26t-37 -11h-64q-18 0 -24 11zM59 33v1294v2q0 12 10 22.5t23 10.5h66q13 0 22.5 -10.5t9.5 -22.5 v-1296q0 -14 -9.5 -23.5t-22.5 -9.5h-66q-14 0 -23.5 10t-9.5 23z" />
<glyph unicode="&#xef;" horiz-adv-x="301" d="M-45 1528v137q0 12 10 22.5t23 10.5h65q13 0 23 -10.5t10 -22.5v-137q0 -12 -10 -21.5t-23 -9.5h-65q-13 0 -23 9.5t-10 21.5zM59 33v1294v2q0 12 10 22.5t23 10.5h66q13 0 22.5 -10.5t9.5 -22.5v-1296q0 -14 -9.5 -23.5t-22.5 -9.5h-66q-14 0 -23.5 10t-9.5 23z M164 1528v137q0 12 10 22.5t23 10.5h65q13 0 23 -10.5t10 -22.5v-137q0 -12 -10 -21.5t-23 -9.5h-65q-13 0 -23 9.5t-10 21.5z" />
<glyph unicode="&#xf1;" horiz-adv-x="641" d="M59 33v1091q0 98 70 168t168 70q97 0 166 -70t69 -168v-1091q0 -14 -9.5 -23.5t-22.5 -9.5h-66q-14 0 -23.5 10t-9.5 23v1091q0 44 -30.5 75.5t-73.5 31.5q-44 0 -75.5 -31.5t-31.5 -75.5v-1091q0 -14 -9.5 -23.5t-22.5 -9.5h-66q-14 0 -23.5 10t-9.5 23zM125 1532v65 q0 13 9.5 23t23.5 10h276q14 0 23.5 -10t9.5 -23v-65q0 -14 -9.5 -23.5t-23.5 -9.5h-276q-14 0 -23.5 9.5t-9.5 23.5z" />
<glyph unicode="&#xf2;" d="M59 236v888q0 98 70 168t168 70q97 0 166 -70t69 -168v-888q0 -98 -69 -167t-166 -69q-98 0 -168 69t-70 167zM79.5 1770q6.5 12 24.5 12h64q18 0 37 -11.5t28 -27.5l119 -209q8 -15 2 -26t-24 -11h-64q-18 0 -37 11t-28 26l-119 209q-9 15 -2.5 27zM190 236 q0 -43 31.5 -74t75.5 -31q43 0 73.5 31t30.5 74v888q0 44 -30.5 75.5t-73.5 31.5q-44 0 -75.5 -31.5t-31.5 -75.5v-888z" />
<glyph unicode="&#xf3;" d="M59 236v888q0 98 70 168t168 70q97 0 166 -70t69 -168v-888q0 -98 -69 -167t-166 -69q-98 0 -168 69t-70 167zM190 236q0 -43 31.5 -74t75.5 -31q43 0 73.5 31t30.5 74v888q0 44 -30.5 75.5t-73.5 31.5q-44 0 -75.5 -31.5t-31.5 -75.5v-888zM237.5 1507q-6.5 12 2.5 27 l118 209q9 15 28 26t38 11h63q18 0 24.5 -11t-1.5 -26l-119 -209q-9 -16 -28 -27.5t-37 -11.5h-64q-18 0 -24.5 12z" />
<glyph unicode="&#xf4;" horiz-adv-x="641" d="M59 236v888q0 98 70 168t168 70q97 0 166 -70t69 -168v-888q0 -98 -69 -167t-166 -69q-98 0 -168 69t-70 167zM77 1508q-6 11 3 26l119 209q16 32 57 39h78q41 -7 57 -39l119 -209q9 -15 2.5 -26t-25.5 -11h-63q-18 0 -37.5 11t-26.5 26l-65 115l-66 -115 q-7 -15 -26.5 -26t-36.5 -11h-64q-19 0 -25 11zM190 236q0 -43 31.5 -74t75.5 -31q43 0 73.5 31t30.5 74v888q0 44 -30.5 75.5t-73.5 31.5q-44 0 -75.5 -31.5t-31.5 -75.5v-888z" />
<glyph unicode="&#xf6;" d="M59 236v888q0 98 70 168t168 70q97 0 166 -70t69 -168v-888q0 -98 -69 -167t-166 -69q-98 0 -168 69t-70 167zM125 1530v135q0 13 9.5 23t23.5 10h65q13 0 23 -10t10 -23v-135q0 -14 -10 -23.5t-23 -9.5h-65q-14 0 -23.5 9.5t-9.5 23.5zM190 236q0 -43 31.5 -74t75.5 -31 q43 0 73.5 31t30.5 74v888q0 44 -30.5 75.5t-73.5 31.5q-44 0 -75.5 -31.5t-31.5 -75.5v-888zM334 1530v135q0 13 10.5 23t22.5 10h65q14 0 23.5 -10t9.5 -23v-135q0 -14 -9.5 -23.5t-23.5 -9.5h-65q-12 0 -22.5 10t-10.5 23z" />
<glyph unicode="&#xf9;" d="M59 236v1093q0 12 10.5 22.5t22.5 10.5h66q13 0 22.5 -10.5t9.5 -22.5v-1093q0 -43 31.5 -74t75.5 -31q43 0 73.5 31t30.5 74v1093q0 12 10 22.5t23 10.5h66q13 0 22.5 -10.5t9.5 -22.5v-1093q0 -98 -69 -167t-166 -69q-98 0 -168 69t-70 167zM79 1769q6 11 23 11h66 q17 0 36.5 -11t26.5 -26l119 -209q9 -15 2.5 -27t-24.5 -12h-64q-18 0 -37 11.5t-28 27.5l-117 209q-9 15 -3 26z" />
<glyph unicode="&#xfa;" d="M59 236v1093q0 12 10.5 22.5t22.5 10.5h66q13 0 22.5 -10.5t9.5 -22.5v-1093q0 -43 31.5 -74t75.5 -31q43 0 73.5 31t30.5 74v1093q0 12 10 22.5t23 10.5h66q13 0 22.5 -10.5t9.5 -22.5v-1093q0 -98 -69 -167t-166 -69q-98 0 -168 69t-70 167zM226.5 1508q-6.5 11 2.5 26 l119 209q9 15 28 27t36 12h65q17 0 23.5 -12t-2.5 -27l-117 -209q-9 -15 -28 -26t-38 -11h-63q-19 0 -25.5 11z" />
<glyph unicode="&#xfb;" d="M59 236v1093q0 12 10.5 22.5t22.5 10.5h66q13 0 22.5 -10.5t9.5 -22.5v-1093q0 -43 31.5 -74t75.5 -31q43 0 73.5 31t30.5 74v1093q0 12 10 22.5t23 10.5h66q13 0 22.5 -10.5t9.5 -22.5v-1093q0 -98 -69 -167t-166 -69q-98 0 -168 69t-70 167zM77 1508q-6 11 3 26 l119 209q16 32 57 39h78q41 -7 57 -39l119 -209q9 -15 2.5 -26t-25.5 -11h-63q-18 0 -37.5 11t-26.5 26l-65 115l-64 -115q-9 -15 -28 -26t-37 -11h-64q-19 0 -25 11z" />
<glyph unicode="&#xfc;" d="M59 236v1093q0 12 10.5 22.5t22.5 10.5h66q13 0 22.5 -10.5t9.5 -22.5v-1093q0 -43 31.5 -74t75.5 -31q43 0 73.5 31t30.5 74v1093q0 12 10 22.5t23 10.5h66q13 0 22.5 -10.5t9.5 -22.5v-1093q0 -98 -69 -167t-166 -69q-98 0 -168 69t-70 167zM125 1528v135q0 13 9.5 23 t23.5 10h65q13 0 23 -10t10 -23v-135q0 -12 -10 -22.5t-23 -10.5h-65q-13 0 -23 10.5t-10 22.5zM336 1528v135q0 13 10 23t23 10h63q14 0 23.5 -10t9.5 -23v-135q0 -12 -10 -22.5t-23 -10.5h-63q-13 0 -23 10.5t-10 22.5z" />
<glyph unicode="&#x152;" horiz-adv-x="3411" />
<glyph unicode="&#x178;" horiz-adv-x="1705" />
<glyph unicode="&#x2c6;" horiz-adv-x="1705" />
<glyph unicode="&#x2dc;" horiz-adv-x="1705" />
<glyph unicode="&#x2000;" horiz-adv-x="891" />
<glyph unicode="&#x2001;" horiz-adv-x="1782" />
<glyph unicode="&#x2002;" horiz-adv-x="891" />
<glyph unicode="&#x2003;" horiz-adv-x="1782" />
<glyph unicode="&#x2004;" horiz-adv-x="594" />
<glyph unicode="&#x2005;" horiz-adv-x="445" />
<glyph unicode="&#x2006;" horiz-adv-x="297" />
<glyph unicode="&#x2007;" horiz-adv-x="297" />
<glyph unicode="&#x2008;" horiz-adv-x="222" />
<glyph unicode="&#x2009;" horiz-adv-x="356" />
<glyph unicode="&#x200a;" horiz-adv-x="99" />
<glyph unicode="&#x2010;" horiz-adv-x="571" d="M59 649v66q0 13 10.5 23t22.5 10h336q14 0 23.5 -10t9.5 -23v-66q0 -13 -9.5 -23t-23.5 -10h-336q-12 0 -22.5 10t-10.5 23z" />
<glyph unicode="&#x2011;" horiz-adv-x="571" d="M59 649v66q0 13 10.5 23t22.5 10h336q14 0 23.5 -10t9.5 -23v-66q0 -13 -9.5 -23t-23.5 -10h-336q-12 0 -22.5 10t-10.5 23z" />
<glyph unicode="&#x2012;" horiz-adv-x="571" d="M59 649v66q0 13 10.5 23t22.5 10h336q14 0 23.5 -10t9.5 -23v-66q0 -13 -9.5 -23t-23.5 -10h-336q-12 0 -22.5 10t-10.5 23z" />
<glyph unicode="&#x2013;" horiz-adv-x="1193" d="M59 649v66q0 13 26.5 23t57.5 10h856q36 0 60 -10t24 -23v-66q0 -13 -24 -23t-60 -10h-856q-31 0 -57.5 10t-26.5 23z" />
<glyph unicode="&#x2014;" horiz-adv-x="2217" d="M59 649v66q0 13 53.5 23t114.5 10h1712q71 0 119.5 -10t48.5 -23v-66q0 -13 -48.5 -23t-119.5 -10h-1712q-61 0 -114.5 10t-53.5 23z" />
<glyph unicode="&#x202f;" horiz-adv-x="356" />
<glyph unicode="&#x205f;" horiz-adv-x="445" />
<glyph unicode="&#x20ac;" horiz-adv-x="776" d="M59 520v66q0 12 9.5 22t21.5 10h103v130h-103q-12 0 -21.5 9.5t-9.5 22.5v66q0 13 9.5 23t21.5 10h103v247q0 98 69 167t166 69q98 0 167 -69t69 -167v-69q0 -13 -10 -23t-23 -10h-64q-13 0 -22.5 9.5t-9.5 23.5v69q0 44 -31.5 75.5t-75.5 31.5q-43 0 -73.5 -31.5 t-30.5 -75.5v-247h102q14 0 23.5 -9.5t9.5 -23.5v-66q0 -13 -9.5 -22.5t-23.5 -9.5h-102v-130h102q13 0 23 -10t10 -22v-66q0 -14 -9.5 -23.5t-23.5 -9.5h-102v-251q0 -43 30.5 -74t73.5 -31q44 0 75.5 31t31.5 74v77q0 12 9.5 22.5t22.5 10.5h64q13 0 23 -10.5t10 -22.5 v-77q0 -97 -69 -166.5t-167 -69.5q-97 0 -166 69.5t-69 166.5v251h-103q-12 0 -21.5 10t-9.5 23z" />
<glyph unicode="&#x25fc;" horiz-adv-x="1361" d="M0 0v1362h1362v-1362h-1362z" />
</font>
</defs>
</svg>
